<mxfile host="Electron" modified="2025-01-13T16:06:50.260Z" agent="Mozilla/5.0 (Windows NT 10.0; Win64; x64) AppleWebKit/537.36 (KHTML, like Gecko) draw.io/24.6.4 Chrome/124.0.6367.207 Electron/30.0.6 Safari/537.36" etag="hSd0_5aSNrMq4SNoKN5u" version="24.6.4" type="device">
  <diagram id="D20KMjvGuDwmrvYIPlAX" name="Page-1">
    <mxGraphModel dx="1948" dy="1422" grid="0" gridSize="10" guides="0" tooltips="1" connect="1" arrows="1" fold="1" page="0" pageScale="1" pageWidth="827" pageHeight="1169" math="0" shadow="0">
      <root>
        <mxCell id="0" />
        <mxCell id="1" parent="0" />
        <mxCell id="1ipDuGfdl1B0XLeZwhUJ-7" value="N" style="rounded=1;arcSize=10;dashed=1;fillColor=none;gradientColor=none;dashPattern=1 1;strokeWidth=2;verticalAlign=top;" parent="1" vertex="1">
          <mxGeometry x="520" y="120" width="339" height="360" as="geometry" />
        </mxCell>
        <mxCell id="1ipDuGfdl1B0XLeZwhUJ-34" value="U6-LR-up" style="points=[[0.03,0.36,0],[0.18,0,0],[0.5,0.34,0],[0.82,0,0],[0.97,0.36,0],[1,0.67,0],[0.975,0.975,0],[0.5,1,0],[0.025,0.975,0],[0,0.67,0]];verticalLabelPosition=bottom;sketch=0;html=1;verticalAlign=top;aspect=fixed;align=center;pointerEvents=1;shape=mxgraph.cisco19.wireless_access_point;fillColor=#005073;strokeColor=none;" parent="1" vertex="1">
          <mxGeometry x="746" y="255" width="50" height="50" as="geometry" />
        </mxCell>
        <mxCell id="L16uUGfxBeMjkfwXHV19-6" value="U6-LR-dn" style="points=[[0.03,0.36,0],[0.18,0,0],[0.5,0.34,0],[0.82,0,0],[0.97,0.36,0],[1,0.67,0],[0.975,0.975,0],[0.5,1,0],[0.025,0.975,0],[0,0.67,0]];verticalLabelPosition=bottom;sketch=0;html=1;verticalAlign=top;aspect=fixed;align=center;pointerEvents=1;shape=mxgraph.cisco19.wireless_access_point;fillColor=#005073;strokeColor=none;" vertex="1" parent="1">
          <mxGeometry x="805" y="256" width="50" height="50" as="geometry" />
        </mxCell>
        <mxCell id="L16uUGfxBeMjkfwXHV19-10" value="Global view&#xa;" style="rounded=1;arcSize=10;dashed=1;fillColor=none;gradientColor=none;dashPattern=1 1;strokeWidth=2;verticalAlign=top;" vertex="1" parent="1">
          <mxGeometry x="-11" y="523" width="891" height="152" as="geometry" />
        </mxCell>
        <mxCell id="L16uUGfxBeMjkfwXHV19-7" style="edgeStyle=orthogonalEdgeStyle;rounded=0;orthogonalLoop=1;jettySize=auto;html=1;endArrow=none;endFill=0;entryX=0.5;entryY=0.34;entryDx=0;entryDy=0;entryPerimeter=0;" edge="1" parent="1" source="1ipDuGfdl1B0XLeZwhUJ-12" target="L16uUGfxBeMjkfwXHV19-6">
          <mxGeometry relative="1" as="geometry">
            <Array as="points">
              <mxPoint x="830" y="245" />
            </Array>
          </mxGeometry>
        </mxCell>
        <mxCell id="1ipDuGfdl1B0XLeZwhUJ-30" style="edgeStyle=orthogonalEdgeStyle;rounded=0;orthogonalLoop=1;jettySize=auto;html=1;exitX=0.31;exitY=0.8;exitDx=0;exitDy=0;exitPerimeter=0;endArrow=none;endFill=0;entryX=0.5;entryY=0;entryDx=0;entryDy=0;" parent="1" source="1ipDuGfdl1B0XLeZwhUJ-1" target="1ipDuGfdl1B0XLeZwhUJ-2" edge="1">
          <mxGeometry relative="1" as="geometry">
            <mxPoint x="410" y="180" as="targetPoint" />
            <Array as="points">
              <mxPoint x="370" y="229" />
              <mxPoint x="417" y="229" />
            </Array>
          </mxGeometry>
        </mxCell>
        <mxCell id="1ipDuGfdl1B0XLeZwhUJ-47" style="edgeStyle=orthogonalEdgeStyle;rounded=0;orthogonalLoop=1;jettySize=auto;html=1;endArrow=none;endFill=0;" parent="1" target="1ipDuGfdl1B0XLeZwhUJ-44" edge="1">
          <mxGeometry relative="1" as="geometry">
            <mxPoint x="413" y="50" as="sourcePoint" />
          </mxGeometry>
        </mxCell>
        <mxCell id="1ipDuGfdl1B0XLeZwhUJ-1" value="Internet" style="ellipse;shape=cloud;whiteSpace=wrap;html=1;fillColor=#f5f5f5;fontColor=#333333;strokeColor=#666666;" parent="1" vertex="1">
          <mxGeometry x="320" y="-30" width="160" height="90" as="geometry" />
        </mxCell>
        <mxCell id="1ipDuGfdl1B0XLeZwhUJ-2" value="CloudflareÂ " style="shape=image;verticalLabelPosition=bottom;labelBackgroundColor=default;verticalAlign=top;aspect=fixed;imageAspect=0;image=data:image/png,iVBORw0KGgoAAAANSUhEUgAAAZAAAADKCAYAAACL3RbpAAAAAXNSR0IArs4c6QAAAARnQU1BAACxjwv8YQUAAAAJcEhZcwAADsMAAA7DAcdvqGQAAA69SURBVHhe7d0/jx1XGQfgvbt2HJLCFIlIgWSX0MSRaFyAI9GQKpULCwnzCSJZEaKjSociFIlPkERCLiIKqoSOkIIGiaQJZYwoQKQgBQkhXi/3Hc9sNs7ee+ee+XfOzPNIqzt3idaJ2Tu/ed/3zJnVydoBAOzpsH4FgL0IEACSCBAAkggQAJIIEACSCBAAkggQAJIIEACSCBAAkggQAJIIEACSCBAAkggQAJIIEACSCBAAkggQAJIIEACSCBAAkggQAJIIEACSrE7W6mNgh5N///3g5JP11/r1wZnjRryvXs98b/XNb9dHD60uP3zffP/oyvXqNd4f1sdQAgEC56gC4t6fqpCoXtdfY2mCJcIkwubo6nXBQpYECKxFYNx//63Rw2IfTYUSFYtqhRwIEBapCYxoOR2vX0vUhMiFazeFCZMQICxGExrHH6yDY308J2erk6N1oMAYBAizVkJrqm8qE8YiQJilJjjuv/ta/Z1lijA5evbmwcXn79Tfgf4IEGbliz+8NssWVVeqEoYgQJgFwdFehMljL74qSOhMgFAsbapuBAldCRCKFBWH4OiHICGVAKEosZLqf7/7mVbVAGL578Ubd6pAgTYECEWIwIjgWMpS3KlEeFi1RVsChOxpV41PW4s2BAjZUnVM78KNO6oRNhIgZEnVkQ9tLTYRIGRF1ZEv1QiPEiBkI3bFjfAgX1GNXPrJXSu1qAgQsqBlVQ4tLRoChElpWZVLSwsBwmQiND5/41b9jhLFMt9Lt+/W71gaAcIkhMd8mIss12H9CqOJYbnwmI9oQ37+5q3qlWVRgTAqw/L5igrE3evLIkAYTQzLo/pgvqzQWhYtLEYRLSvhMX/RxooHe1lVtwwChMFFeDihLIel2cshQBiUE8kyCZFlECAMJgbm2lbL1YSI1VnzJUAYRASH1VZEeFjiO19WYdG7aFu4z4OzYnXW4y+9V79jLlQg9Ep4cJ6qEvF7MTsChF5FzxvOExcXMRdjPgQIvYkrTL1utom5mBCZDwFCL+KkYMkmbbjRcD4ECJ3FycCKK9qKKtXy3nkQIHRiOEqK+L35wkVH8QQInRiakyruFXKjadkECMniw6+XTRdRhWhllUuAkKTpY0MXfo/KJkBI4kNPX9wfUi4Bwt4s2aVvsbRXK6s8AoS9WbJL36zKKpMAYS9aVwzFoozyCBBaiw+3ZZcMyQVKWQQIrRl0MrRoZblIKYcAoRXtBcZiFlIOAUIrPtSMpRqoq3aLIEDYKaoPSywZUyzrJX8ChJ3u60kzMrOQMggQtjL7YCrapvkTIGyl+mAqqpD8rU7W6mMyEB+ak0/WH5yP/vTwtcUHaPXNbx8cXrleHR+tX8++7yIqD8/6YErxu/z4S+/V78iNAJlYBEZc5cfJus9WUXzwwtGzNw8uXLt5+n4fER7aV0zt0u27vVwQ0T8BMpEmOMbYV6qpSKI6OVqHSVufvXK1PoLpxO9uhAj5ESAjakJjyp1HI0yiKjm6en3rVV20zmwrQS5UIXkSICOJG6Ny2sW2CZKLz9+pv/NV//319ycLOXjUhRt3Nv6uMh0BMrA4CceVfK6zhPOCRPVBbuL31DA9P5bxDiSCI6qOuJLPeRBdtdXWldHZiuPY4JzMxO+mBR35UYEMIH7RS1z+2lQjHhhFjmIByGMvvlq/IwcCpGfaPzAMbaz8aGH1KIJDeMAwtLHyI0B6Ei0r2y7AsGytkxcB0lFcFbljG8bhc5YXAdJRzkt0YW60sfIiQDpQeQBLJkASxT0ewgPG53G3+RAgCSI43CsB04jHHJAHAbKnCI8SbxKEuTAHyYcA2ZPyGaYXIcL0BMge4j4PVz4wvbgrnekJkD14yD/kYXVZgORAgLQUrStlM0wvNlVUgeTBZootRHDEdufA9GJH3m2PZj75118OHvz5lwcnn/6j/s6XVk888/Dgyfq1tnrq2pev6//t9J9jKwHSQtxtbp8ryMM3fvFRffR1ERrHb/+4ftfN6unnHr6uQ0WwnE+AtPDZK1frI2BKu54J8uDD16uvoUSoVIFy5UfCZE2A7OD5HpCPeB7ItvnH8R9frlpYY4lAOfzO7dNqZWkEyA5nH/UKTOfwyvWDS7fv1u++rs/21b6WWplYhbVF3PMhPCAPF7YMzsOYlcejqsH9h69XARZV0IN7b587xJ8bAbKFh9dAPratvKp8+s/6YFrNKrAIkwiVOQeJANnCyivIw87wWBtyeJ6qqUo2LSsunQDZwJYlkI+d7avMT87R0ppjkAiQDcw+IB8xQN/m5N479VHeToNkJjMSAbLBsQoEsrDtvo/Gycfv10dliEqkqkYmHPz3QYBsoAKBPOysPtZX8iWeiOPfuVqxVXBbS4Bs4KlnML02GyeW0r7a5GxbqzQCZAMVCEzvaEf1MSenba2CqhEBcg4rsCAPpS7fTRVVyIN3Xy4mRATIOVQfML024TGHlUyPiv+mUlpaAgTI0sUbd+qjzUqff2wT7axqc8iMQ1KAANmJlVdtnjo45wAJ1bYoGbe0BAiQnV13noc4qc6xhfWo+G/MNUQECJCdVvOPmVcfZ+UaIgIEyMqFFrOPJYrwiOF6TjdNCpBztOm9AsO4+Hy7AClt+5K+NM8byYEAAbKxT/VR+j5SXeRyw6EAOcfqsgoEptC6+shwoDy2qp018d+DADlHtLC0sWBce1UfCxqgbzP1YF2AbKAKgfHEBVvb6oMvRXhMGSICZINdW0gD/WnzzI+vyOT55zmYMkQEyAaHWlgwimhduWDrJsJjirbe6mStPl6k2Dgxdt99cGYDxXgWSHzPpoowrAiOS7fv1u/aq7Y+L/D5GUM7/O5Pq6+xLCpAIhSOP1oHwzogmuAAphPhkVJ9CJDNjl74zcHqiWfqd8OadYBESNx//60qKIQF5CU1PIIA2SzC4/DGr0YJkdkFSBMaxx+8pQUFmYqheZv9rjaJ8IgQ4XxjtbJmEyDHERrRolq/AvmKoXnXJbtxF3ps6cFmh9/7+brCe6F+N4ziA+SLP7x2cP/d1+p3QM6i6th7ye4GOdyJnbMxWlnFLuON4PjslavCAwoR846+wqPy5DiD4lKNsbS3uAARHFCeqDxSlutus3rqWn3EJg8+fH3QKq2YAImB+Odv3BIcUJiYefRaedRWV3402nLVkg252KCIAImq47+//r6luFCYqDqG2uMqwiNChO2q56oPtOQ56yF6VXW8ectyXChMbI4YVccYW5QYpu821EA92wokluNG1SE8oCwRGo+/9N4o4RFUIbsNNVDPsgL53+9+5n4OKEy1JfuNO51uEEylCtltiCokqwqkGZQLDyhLU3VMER5hzP2fSlVVIT0/BjibCiTCI1pWQDnGnHXsEifIqZ/Ql7u+q5AsKpBYXSU8oBwRHLE8d8xZxy5DtGjmpu8qZPIKJMIj2lZA/iI4jp69mf3jZ6sb6O69oxo5x+rp5w6OfvCr+l03kwaI8IAyRJVx4drNyWYcKar7H/76Ru99/znoa2Y0WYCYeUC+mkojHu1cUmicJwLk5G+/f/iqIqnELr2xW29XkwSI8IB8RFiEqDJWl9eBcfV6NnONvlUh8vH71dfBf/6x6EDpowqZJECibWVbEkrTnGh3iZNwG21+XtufFaJa2OXRP3OuQbGPpsV1Giaf/vMrr6ffXwdOYw7B08fzQkYPEOExrTmeBLdp82fv8/PgrCpIzguWAkKojzbWqAHi4U/jiBNiCStlYMma2cyUz3bv2sYa7T6QqDqExzjixi7hAXmL5bRRAUx530rTvks1WoDE/lYML5e7goF2Ikgm8/EH9UGaUQIk5h521QX4uq5VQBdd22eDB0i0rgzNx3PfRpRQjKEfOdtGlz9/8ACJwTnjibCOv/N4japP5Qf5iSv/eNRsBMjUulRAg67CsuqqHH0vjQ1tf2abn9dmeW+wxJchPboc9ytX77Fkt1m+u7b1n81Il72xBg2Qz165Wh/BvPUZlmHo8I2fv+TFFnEyP73yfuSejVCd7Gd24+A2qct5BwsQTxWE/EWQRAhFmMRmiXOsuKpBcb3aqLr3YuZhkCK7AFF9QHkiQKZ6LG2fmtCY8ia9kqRuazJIgKg+oGwRJKXtZhBh0ey6y35StzUZJEBUHzAP0dqKm1Nzbm0Jju5SA6T3ZbyW7cJ8xHLwz9+8leXnOoLj+O0fV8thhUc3qXOh3gPk+AOtK5iTuJcoPte53BAcYXEaHAbivUgN4F4DJOYeblyD+YnPdcw2pw6R4z++XH0Jjv6l/J32GyCZXKEA/WtCZIqLxLhCvv/bH2pVDenMfS9t9V6BAPPVhMiYmqqDYU1agQgPWIZoY43RyooTWtWuUnVkq78A0b6CxRh6VVYzKBceeestQHJZoQEMb8gqpAoPLavxndkLrK3eAsTqK1iWIaqQ2N5ceExkqgAx/4DlOfmk34vGXJ6PQXv9BIj2FSxOdB36amNFcNj4sDy9BIj5ByzT8UfdP/sRHCqPMvUSIOYfsExdLx5jYB6tK8rUOUBUH0AKq60y88S36oP2OgeI6gPYV3OTIGXrXoEIEGBP2lYZmqQC6XkpHzBv1QOg3GE+C1pYwGiidaX6yNPqiWfqo/ZUIECyfR91KzzmpXOAALQR93poXWXsyQkqEGC5jq5cr492O7n3Tn1EjqZpYZmBwGIdtgyQqvpIeGAR40gJj6ACAZK1nYGoPjKX0L4KnQNk3yEaMA9tq4+Ye6g+8rZ66lp9tB8VCJCk7cWjlVf5myxAVpdVILBEF67drI82i8pD9ZG/1dPP1Uf7UYEASdq0sMw+8pc6QA9mIMDejlpWH57zUYDEAXrQwgL21ub+D9VHGVLnH0ELC9ib9tV8TBogR1fbLeUD5iHCY1fr2vC8HKkD9NBLC8scBJbj4vN36qPN7HlVhsMrL9RHaXoZoj/24quthmpAuZrPepv2VZyYuqzuYXjx/9Hh935ev0uzOlmrjwGgNUN0AJIIEACSCBAAkggQAJIIEACSCBAAkggQAJIIEACSCBAAkggQAJIIEACSCBAAEhwc/B9f6HA0jlwoZQAAAABJRU5ErkJggg==;" parent="1" vertex="1">
          <mxGeometry x="362" y="308" width="110" height="55.55" as="geometry" />
        </mxCell>
        <mxCell id="1ipDuGfdl1B0XLeZwhUJ-18" style="edgeStyle=orthogonalEdgeStyle;rounded=0;orthogonalLoop=1;jettySize=auto;html=1;exitX=0.5;exitY=0;exitDx=0;exitDy=0;endArrow=none;endFill=0;entryX=0.07;entryY=0.4;entryDx=0;entryDy=0;entryPerimeter=0;" parent="1" source="1ipDuGfdl1B0XLeZwhUJ-3" target="1ipDuGfdl1B0XLeZwhUJ-1" edge="1">
          <mxGeometry relative="1" as="geometry" />
        </mxCell>
        <mxCell id="1ipDuGfdl1B0XLeZwhUJ-3" value="Swisscom" style="rounded=1;whiteSpace=wrap;html=1;" parent="1" vertex="1">
          <mxGeometry x="188" y="40" width="120" height="60" as="geometry" />
        </mxCell>
        <mxCell id="1ipDuGfdl1B0XLeZwhUJ-19" style="edgeStyle=orthogonalEdgeStyle;rounded=0;orthogonalLoop=1;jettySize=auto;html=1;exitX=0.5;exitY=0;exitDx=0;exitDy=0;endArrow=none;endFill=0;entryX=0.875;entryY=0.5;entryDx=0;entryDy=0;entryPerimeter=0;" parent="1" source="1ipDuGfdl1B0XLeZwhUJ-4" target="1ipDuGfdl1B0XLeZwhUJ-1" edge="1">
          <mxGeometry relative="1" as="geometry" />
        </mxCell>
        <mxCell id="1ipDuGfdl1B0XLeZwhUJ-4" value="Starlink" style="rounded=1;whiteSpace=wrap;html=1;" parent="1" vertex="1">
          <mxGeometry x="520" y="40" width="120" height="60" as="geometry" />
        </mxCell>
        <mxCell id="1ipDuGfdl1B0XLeZwhUJ-20" style="edgeStyle=orthogonalEdgeStyle;rounded=0;orthogonalLoop=1;jettySize=auto;html=1;exitX=0.5;exitY=0;exitDx=0;exitDy=0;entryX=0.88;entryY=0.25;entryDx=0;entryDy=0;entryPerimeter=0;endArrow=none;endFill=0;" parent="1" source="1ipDuGfdl1B0XLeZwhUJ-5" target="1ipDuGfdl1B0XLeZwhUJ-1" edge="1">
          <mxGeometry relative="1" as="geometry" />
        </mxCell>
        <mxCell id="1ipDuGfdl1B0XLeZwhUJ-5" value="Sosh" style="rounded=1;whiteSpace=wrap;html=1;" parent="1" vertex="1">
          <mxGeometry x="695" y="40" width="120" height="60" as="geometry" />
        </mxCell>
        <mxCell id="1ipDuGfdl1B0XLeZwhUJ-6" value="Z" style="rounded=1;arcSize=10;dashed=1;fillColor=none;gradientColor=none;dashPattern=1 1;strokeWidth=2;verticalAlign=top;" parent="1" vertex="1">
          <mxGeometry x="-10" y="120" width="320" height="360" as="geometry" />
        </mxCell>
        <mxCell id="1ipDuGfdl1B0XLeZwhUJ-15" style="edgeStyle=orthogonalEdgeStyle;rounded=0;orthogonalLoop=1;jettySize=auto;html=1;exitX=0.5;exitY=0;exitDx=0;exitDy=0;exitPerimeter=0;endArrow=none;endFill=0;" parent="1" source="1ipDuGfdl1B0XLeZwhUJ-33" target="1ipDuGfdl1B0XLeZwhUJ-3" edge="1">
          <mxGeometry relative="1" as="geometry">
            <mxPoint x="220" y="145.55000000000018" as="sourcePoint" />
            <Array as="points">
              <mxPoint x="220" y="114" />
              <mxPoint x="248" y="114" />
            </Array>
          </mxGeometry>
        </mxCell>
        <mxCell id="1ipDuGfdl1B0XLeZwhUJ-27" style="edgeStyle=orthogonalEdgeStyle;rounded=0;orthogonalLoop=1;jettySize=auto;html=1;entryX=0.5;entryY=0;entryDx=0;entryDy=0;entryPerimeter=0;endArrow=none;endFill=0;exitX=0.145;exitY=0.855;exitDx=0;exitDy=0;exitPerimeter=0;" parent="1" source="1ipDuGfdl1B0XLeZwhUJ-33" target="1ipDuGfdl1B0XLeZwhUJ-26" edge="1">
          <mxGeometry relative="1" as="geometry">
            <mxPoint x="195" y="170.55000000000018" as="sourcePoint" />
          </mxGeometry>
        </mxCell>
        <mxCell id="1ipDuGfdl1B0XLeZwhUJ-17" style="edgeStyle=orthogonalEdgeStyle;rounded=0;orthogonalLoop=1;jettySize=auto;html=1;exitX=0.5;exitY=0;exitDx=0;exitDy=0;exitPerimeter=0;endArrow=none;endFill=0;" parent="1" source="1ipDuGfdl1B0XLeZwhUJ-11" target="1ipDuGfdl1B0XLeZwhUJ-5" edge="1">
          <mxGeometry relative="1" as="geometry" />
        </mxCell>
        <mxCell id="1ipDuGfdl1B0XLeZwhUJ-22" style="edgeStyle=orthogonalEdgeStyle;rounded=0;orthogonalLoop=1;jettySize=auto;html=1;exitX=0;exitY=0.5;exitDx=0;exitDy=0;exitPerimeter=0;entryX=0.8555;entryY=0.145;entryDx=0;entryDy=0;entryPerimeter=0;endArrow=none;endFill=0;" parent="1" source="1ipDuGfdl1B0XLeZwhUJ-11" target="1ipDuGfdl1B0XLeZwhUJ-12" edge="1">
          <mxGeometry relative="1" as="geometry" />
        </mxCell>
        <mxCell id="1ipDuGfdl1B0XLeZwhUJ-11" value="SoshBox" style="sketch=0;points=[[0.5,0,0],[1,0.5,0],[0.5,1,0],[0,0.5,0],[0.145,0.145,0],[0.8555,0.145,0],[0.855,0.8555,0],[0.145,0.855,0]];verticalLabelPosition=bottom;html=1;verticalAlign=top;aspect=fixed;align=center;pointerEvents=1;shape=mxgraph.cisco19.rect;prIcon=router;fillColor=#FAFAFA;strokeColor=#005073;" parent="1" vertex="1">
          <mxGeometry x="730" y="142.78" width="50" height="50" as="geometry" />
        </mxCell>
        <mxCell id="1ipDuGfdl1B0XLeZwhUJ-35" style="edgeStyle=orthogonalEdgeStyle;rounded=0;orthogonalLoop=1;jettySize=auto;html=1;exitX=1;exitY=0.5;exitDx=0;exitDy=0;exitPerimeter=0;entryX=0.5;entryY=0.34;entryDx=0;entryDy=0;entryPerimeter=0;endArrow=none;endFill=0;" parent="1" source="1ipDuGfdl1B0XLeZwhUJ-12" target="1ipDuGfdl1B0XLeZwhUJ-34" edge="1">
          <mxGeometry relative="1" as="geometry">
            <Array as="points">
              <mxPoint x="771" y="245" />
            </Array>
          </mxGeometry>
        </mxCell>
        <mxCell id="1ipDuGfdl1B0XLeZwhUJ-46" style="edgeStyle=orthogonalEdgeStyle;rounded=0;orthogonalLoop=1;jettySize=auto;html=1;exitX=0;exitY=0.5;exitDx=0;exitDy=0;exitPerimeter=0;entryX=1;entryY=0.5;entryDx=0;entryDy=0;entryPerimeter=0;endArrow=none;endFill=0;" parent="1" source="1ipDuGfdl1B0XLeZwhUJ-12" target="1ipDuGfdl1B0XLeZwhUJ-45" edge="1">
          <mxGeometry relative="1" as="geometry" />
        </mxCell>
        <mxCell id="1ipDuGfdl1B0XLeZwhUJ-55" style="edgeStyle=orthogonalEdgeStyle;rounded=0;orthogonalLoop=1;jettySize=auto;html=1;exitX=0.145;exitY=0.855;exitDx=0;exitDy=0;exitPerimeter=0;entryX=0.5;entryY=0;entryDx=0;entryDy=0;entryPerimeter=0;endArrow=none;endFill=0;" parent="1" source="1ipDuGfdl1B0XLeZwhUJ-12" target="1ipDuGfdl1B0XLeZwhUJ-53" edge="1">
          <mxGeometry relative="1" as="geometry" />
        </mxCell>
        <mxCell id="1ipDuGfdl1B0XLeZwhUJ-56" style="edgeStyle=orthogonalEdgeStyle;rounded=0;orthogonalLoop=1;jettySize=auto;html=1;exitX=0.855;exitY=0.8555;exitDx=0;exitDy=0;exitPerimeter=0;entryX=0.5;entryY=0;entryDx=0;entryDy=0;entryPerimeter=0;endArrow=none;endFill=0;" parent="1" source="1ipDuGfdl1B0XLeZwhUJ-12" target="1ipDuGfdl1B0XLeZwhUJ-54" edge="1">
          <mxGeometry relative="1" as="geometry" />
        </mxCell>
        <mxCell id="1ipDuGfdl1B0XLeZwhUJ-12" value="Ubiquiti&lt;br&gt;UDM-PRO-SE" style="sketch=0;points=[[0.5,0,0],[1,0.5,0],[0.5,1,0],[0,0.5,0],[0.145,0.145,0],[0.8555,0.145,0],[0.855,0.8555,0],[0.145,0.855,0]];verticalLabelPosition=bottom;html=1;verticalAlign=top;aspect=fixed;align=center;pointerEvents=1;shape=mxgraph.cisco19.rect;prIcon=router;fillColor=#FAFAFA;strokeColor=#005073;" parent="1" vertex="1">
          <mxGeometry x="645" y="220" width="50" height="50" as="geometry" />
        </mxCell>
        <mxCell id="1ipDuGfdl1B0XLeZwhUJ-16" style="edgeStyle=orthogonalEdgeStyle;rounded=0;orthogonalLoop=1;jettySize=auto;html=1;exitX=0.5;exitY=0;exitDx=0;exitDy=0;exitPerimeter=0;endArrow=none;endFill=0;" parent="1" source="1ipDuGfdl1B0XLeZwhUJ-13" target="1ipDuGfdl1B0XLeZwhUJ-4" edge="1">
          <mxGeometry relative="1" as="geometry" />
        </mxCell>
        <mxCell id="1ipDuGfdl1B0XLeZwhUJ-21" style="edgeStyle=orthogonalEdgeStyle;rounded=0;orthogonalLoop=1;jettySize=auto;html=1;exitX=1;exitY=0.5;exitDx=0;exitDy=0;exitPerimeter=0;entryX=0.145;entryY=0.145;entryDx=0;entryDy=0;entryPerimeter=0;endArrow=none;endFill=0;" parent="1" source="1ipDuGfdl1B0XLeZwhUJ-13" target="1ipDuGfdl1B0XLeZwhUJ-12" edge="1">
          <mxGeometry relative="1" as="geometry" />
        </mxCell>
        <mxCell id="1ipDuGfdl1B0XLeZwhUJ-13" value="StarlinkBase" style="sketch=0;points=[[0.5,0,0],[1,0.5,0],[0.5,1,0],[0,0.5,0],[0.145,0.145,0],[0.8555,0.145,0],[0.855,0.8555,0],[0.145,0.855,0]];verticalLabelPosition=bottom;html=1;verticalAlign=top;aspect=fixed;align=center;pointerEvents=1;shape=mxgraph.cisco19.rect;prIcon=router;fillColor=#FAFAFA;strokeColor=#005073;" parent="1" vertex="1">
          <mxGeometry x="555" y="142.78" width="50" height="50" as="geometry" />
        </mxCell>
        <mxCell id="1ipDuGfdl1B0XLeZwhUJ-40" style="edgeStyle=orthogonalEdgeStyle;rounded=0;orthogonalLoop=1;jettySize=auto;html=1;exitX=0.5;exitY=1;exitDx=0;exitDy=0;exitPerimeter=0;endArrow=none;endFill=0;" parent="1" source="1ipDuGfdl1B0XLeZwhUJ-26" target="1ipDuGfdl1B0XLeZwhUJ-36" edge="1">
          <mxGeometry relative="1" as="geometry" />
        </mxCell>
        <mxCell id="1ipDuGfdl1B0XLeZwhUJ-51" style="edgeStyle=orthogonalEdgeStyle;rounded=0;orthogonalLoop=1;jettySize=auto;html=1;exitX=0.145;exitY=0.855;exitDx=0;exitDy=0;exitPerimeter=0;entryX=0.5;entryY=0;entryDx=0;entryDy=0;entryPerimeter=0;endArrow=none;endFill=0;" parent="1" source="1ipDuGfdl1B0XLeZwhUJ-12" target="1ipDuGfdl1B0XLeZwhUJ-49" edge="1">
          <mxGeometry relative="1" as="geometry">
            <Array as="points">
              <mxPoint x="626" y="263" />
              <mxPoint x="626" y="308" />
              <mxPoint x="653" y="308" />
            </Array>
          </mxGeometry>
        </mxCell>
        <mxCell id="1ipDuGfdl1B0XLeZwhUJ-52" style="edgeStyle=orthogonalEdgeStyle;rounded=0;orthogonalLoop=1;jettySize=auto;html=1;exitX=0.5;exitY=1;exitDx=0;exitDy=0;exitPerimeter=0;entryX=0.5;entryY=0;entryDx=0;entryDy=0;entryPerimeter=0;endArrow=none;endFill=0;" parent="1" source="1ipDuGfdl1B0XLeZwhUJ-26" target="1ipDuGfdl1B0XLeZwhUJ-50" edge="1">
          <mxGeometry relative="1" as="geometry" />
        </mxCell>
        <mxCell id="1ipDuGfdl1B0XLeZwhUJ-26" value="USW-Flex-Mini-5 (L2)" style="sketch=0;points=[[0.015,0.015,0],[0.985,0.015,0],[0.985,0.985,0],[0.015,0.985,0],[0.25,0,0],[0.5,0,0],[0.75,0,0],[1,0.25,0],[1,0.5,0],[1,0.75,0],[0.75,1,0],[0.5,1,0],[0.25,1,0],[0,0.75,0],[0,0.5,0],[0,0.25,0]];verticalLabelPosition=top;html=1;verticalAlign=bottom;aspect=fixed;align=center;pointerEvents=1;shape=mxgraph.cisco19.rect;prIcon=l2_switch;fillColor=#FAFAFA;strokeColor=#005073;labelPosition=center;" parent="1" vertex="1">
          <mxGeometry x="120" y="260" width="50" height="50" as="geometry" />
        </mxCell>
        <mxCell id="1ipDuGfdl1B0XLeZwhUJ-31" style="edgeStyle=orthogonalEdgeStyle;rounded=0;orthogonalLoop=1;jettySize=auto;html=1;exitX=0;exitY=0.5;exitDx=0;exitDy=0;exitPerimeter=0;entryX=1;entryY=0.5;entryDx=0;entryDy=0;endArrow=none;endFill=0;entryPerimeter=0;" parent="1" source="1ipDuGfdl1B0XLeZwhUJ-29" target="1ipDuGfdl1B0XLeZwhUJ-50" edge="1">
          <mxGeometry relative="1" as="geometry" />
        </mxCell>
        <mxCell id="L16uUGfxBeMjkfwXHV19-4" style="edgeStyle=orthogonalEdgeStyle;rounded=0;orthogonalLoop=1;jettySize=auto;html=1;exitX=0.5;exitY=0;exitDx=0;exitDy=0;exitPerimeter=0;entryX=0;entryY=0.5;entryDx=0;entryDy=0;" edge="1" parent="1" source="1ipDuGfdl1B0XLeZwhUJ-29" target="1ipDuGfdl1B0XLeZwhUJ-2">
          <mxGeometry relative="1" as="geometry" />
        </mxCell>
        <mxCell id="1ipDuGfdl1B0XLeZwhUJ-29" value="&lt;span style=&quot;background-color: rgb(255, 255, 255);&quot;&gt;CF Zero Trust&lt;/span&gt;&lt;br style=&quot;padding: 0px; margin: 0px;&quot;&gt;&lt;span style=&quot;background-color: rgb(255, 255, 255);&quot;&gt;Tunnel&lt;/span&gt;" style="sketch=0;points=[[0.015,0.015,0],[0.985,0.015,0],[0.985,0.985,0],[0.015,0.985,0],[0.25,0,0],[0.5,0,0],[0.75,0,0],[1,0.25,0],[1,0.5,0],[1,0.75,0],[0.75,1,0],[0.5,1,0],[0.25,1,0],[0,0.75,0],[0,0.5,0],[0,0.25,0]];verticalLabelPosition=bottom;html=1;verticalAlign=top;aspect=fixed;align=center;pointerEvents=1;shape=mxgraph.cisco19.rect;prIcon=virtual_private_network_connector;fillColor=#FAFAFA;strokeColor=#005073;" parent="1" vertex="1">
          <mxGeometry x="265" y="360" width="64" height="50" as="geometry" />
        </mxCell>
        <mxCell id="1ipDuGfdl1B0XLeZwhUJ-43" style="edgeStyle=orthogonalEdgeStyle;rounded=0;orthogonalLoop=1;jettySize=auto;html=1;exitX=0;exitY=0.5;exitDx=0;exitDy=0;exitPerimeter=0;entryX=1;entryY=0.5;entryDx=0;entryDy=0;entryPerimeter=0;endArrow=none;endFill=0;" parent="1" source="1ipDuGfdl1B0XLeZwhUJ-33" target="1ipDuGfdl1B0XLeZwhUJ-42" edge="1">
          <mxGeometry relative="1" as="geometry" />
        </mxCell>
        <mxCell id="1ipDuGfdl1B0XLeZwhUJ-33" value="SwisscomBox" style="sketch=0;points=[[0.5,0,0],[1,0.5,0],[0.5,1,0],[0,0.5,0],[0.145,0.145,0],[0.8555,0.145,0],[0.855,0.8555,0],[0.145,0.855,0]];verticalLabelPosition=bottom;html=1;verticalAlign=top;aspect=fixed;align=center;pointerEvents=1;shape=mxgraph.cisco19.rect;prIcon=wireless_router;fillColor=#FAFAFA;strokeColor=#005073;" parent="1" vertex="1">
          <mxGeometry x="195" y="140.55" width="50" height="60" as="geometry" />
        </mxCell>
        <mxCell id="1ipDuGfdl1B0XLeZwhUJ-36" value="Deepthread" style="points=[[0.03,0.03,0],[0.5,0,0],[0.97,0.03,0],[1,0.4,0],[0.97,0.745,0],[0.5,1,0],[0.03,0.745,0],[0,0.4,0]];verticalLabelPosition=bottom;sketch=0;html=1;verticalAlign=top;aspect=fixed;align=center;pointerEvents=1;shape=mxgraph.cisco19.workstation;fillColor=#005073;strokeColor=none;" parent="1" vertex="1">
          <mxGeometry x="10" y="360" width="50" height="40" as="geometry" />
        </mxCell>
        <mxCell id="1ipDuGfdl1B0XLeZwhUJ-37" value="Red" style="points=[[0.13,0.02,0],[0.5,0,0],[0.87,0.02,0],[0.885,0.4,0],[0.985,0.985,0],[0.5,1,0],[0.015,0.985,0],[0.115,0.4,0]];verticalLabelPosition=bottom;sketch=0;html=1;verticalAlign=top;aspect=fixed;align=center;pointerEvents=1;shape=mxgraph.cisco19.laptop;fillColor=#005073;strokeColor=none;" parent="1" vertex="1">
          <mxGeometry x="344" y="-92.5" width="50" height="35" as="geometry" />
        </mxCell>
        <mxCell id="1ipDuGfdl1B0XLeZwhUJ-38" value="iPadMini" style="sketch=0;points=[[0.015,0.015,0],[0.985,0.015,0],[0.985,0.985,0],[0.015,0.985,0],[0.25,0,0],[0.5,0,0],[0.75,0,0],[1,0.25,0],[1,0.5,0],[1,0.75,0],[0.75,1,0],[0.5,1,0],[0.25,1,0],[0,0.75,0],[0,0.5,0],[0,0.25,0]];verticalLabelPosition=bottom;html=1;verticalAlign=top;aspect=fixed;align=center;pointerEvents=1;shape=mxgraph.cisco19.handheld;fillColor=#005073;strokeColor=none;" parent="1" vertex="1">
          <mxGeometry x="231" y="255" width="37.5" height="50" as="geometry" />
        </mxCell>
        <mxCell id="1ipDuGfdl1B0XLeZwhUJ-39" value="Xr" style="sketch=0;points=[[0.015,0.015,0],[0.985,0.015,0],[0.985,0.985,0],[0.015,0.985,0],[0.25,0,0],[0.5,0,0],[0.75,0,0],[1,0.25,0],[1,0.5,0],[1,0.75,0],[0.75,1,0],[0.5,1,0],[0.25,1,0],[0,0.75,0],[0,0.5,0],[0,0.25,0]];verticalLabelPosition=bottom;html=1;verticalAlign=top;aspect=fixed;align=center;pointerEvents=1;shape=mxgraph.cisco19.cell_phone;fillColor=#005073;strokeColor=none;" parent="1" vertex="1">
          <mxGeometry x="438" y="-100" width="25" height="50" as="geometry" />
        </mxCell>
        <mxCell id="1ipDuGfdl1B0XLeZwhUJ-42" value="NAS" style="sketch=0;points=[[0.015,0.015,0],[0.985,0.015,0],[0.985,0.985,0],[0.015,0.985,0],[0.25,0,0],[0.5,0,0],[0.75,0,0],[1,0.25,0],[1,0.5,0],[1,0.75,0],[0.75,1,0],[0.5,1,0],[0.25,1,0],[0,0.75,0],[0,0.5,0],[0,0.25,0]];verticalLabelPosition=bottom;html=1;verticalAlign=top;aspect=fixed;align=center;pointerEvents=1;shape=mxgraph.cisco19.rect;prIcon=storage;fillColor=#FAFAFA;strokeColor=#005073;" parent="1" vertex="1">
          <mxGeometry x="30" y="145.55" width="64" height="50" as="geometry" />
        </mxCell>
        <mxCell id="1ipDuGfdl1B0XLeZwhUJ-48" style="edgeStyle=orthogonalEdgeStyle;rounded=0;orthogonalLoop=1;jettySize=auto;html=1;exitX=1;exitY=0.5;exitDx=0;exitDy=0;entryX=0;entryY=0.5;entryDx=0;entryDy=0;entryPerimeter=0;endArrow=none;endFill=0;" parent="1" source="1ipDuGfdl1B0XLeZwhUJ-44" target="1ipDuGfdl1B0XLeZwhUJ-45" edge="1">
          <mxGeometry relative="1" as="geometry" />
        </mxCell>
        <mxCell id="1ipDuGfdl1B0XLeZwhUJ-44" value="UbiquitiÂ &#xa;(backup)" style="shape=image;verticalLabelPosition=bottom;labelBackgroundColor=default;verticalAlign=top;aspect=fixed;imageAspect=0;image=data:image/png,iVBORw0KGgoAAAANSUhEUgAAAGkAAABsCAYAAABpT5yJAAAAAXNSR0IArs4c6QAAAARnQU1BAACxjwv8YQUAAAAJcEhZcwAADsMAAA7DAcdvqGQAABr1SURBVHhe7VxtzC5XVZ235UJKWqQtRbS3tECqgvLHBKpSKIqKCRhBvowxiEFjIqJBEw34QaWgMcIPY4QUFaqgYCHSYvhhFK1IaUvRBCkfAial9EqBftFioRTvda/9NevsOWeeedobg0lX3z1r77X3OXNmzpznzPO+Fw6e8IQnHJvuxzc0TnC+H9/AuH+S/h/g4MUvfvH9H3ff4DiYXvBhmaQD+RFbMFxfbN18MFA1Yq7b2t9qPhhufBh4PMnlHPPn7thRZ8Ru4ScLTVKnHFqP4Zb+7lUdXM8P+yAWyBXiguESJ8IHs1WItrh5wWxySGZfGEjWxMxDUI7Lws9zuAHaZ7CYhsEMz6cBpUhDOSR7Ptn9ZPZRAD/YHWXknQUySZg1uMQLQGOrCE04n5ZgMs2DwOwjBz9YEzMvQDltH4Yn1P1FDu0gu5M1GjgzPJ/WgcpySPa6ZPeDm1qwucYstMkTbFZj9iAFm2uAw1YRmnA+EUbZRGM5ZMy+GJDM4gCLtFxQt4mIrIffjLPUKLLQrQOV5ZDsfnNtpGmNULK5xiy0yRNspn32dOIihuv6woLkkG2J3Z19MBvn3IfDnL4Qa41hLwmT+GjJazvPdfuATLHWCEWtuqE7KyLnh2Q2z6cP7hnVAcrQg5s9SRDcCIukQUM5xBOQzCaHYK0VAoITnmdoKIeQOyUt/KLUAOe1Nr2+leXQxOBwAPYJKsuB70VlvSdsoaMA7I6ymPzQniQIVocNyKRAfA3Brie7n+yWbeCmUyxIDtyWLWp7ceq+eqppbYA0zZu7qAcBGqtTjKChHLKt552Uo++00LTC/GTTV1YSW4VoKoM9H2XgztOgCJ6dJbh2pWyGX4wiOFDjHugkzbl9AKwpWEiRQPnRvUlmHwXwgzWhP76SYKIpq9NyzW+xbh8r2ibjPShMdN2L3F9wNWoXMY/n3oyNr1UNII1ZDSHHbMucTBJgM2asjsfOzYy7DyRr0uMQC0b9ZrsBvGQMvSpzExyLr33UGgH3u3oOR9TwtTRaBIwscCNoKIdk90v/PklyAZi1ZHMtBrmehpzryaGHzww32P0wrq3tqq3qsUJ8ZaTmNYv68C2c8y5EXVqQHCIX9WqkKQspwnE9LUgOyWQuwXySBDx7yXIAq7kPJIdTgVrP1TbAqBmwyPmAq64rw3M7EXVUn/1RP9BCX4yjQgq4Nn13Il6AiwtUlgP3IebfkyTIWWS/oyGoXLU145pd9fo7Nfi0SsLyO1Fo4QsfZW1ko/xKu8V1itu9BsgdDYAfbazQLUgOXCN2QsyWYu3pV3AxQ7Qy+wrlCApY7pUMmiUWe0zEwtkWWtFHe9Pa+TgX/pZ6MO6LsipLbpI9HGAlCdfZBQHBVkQWJAef7dkg68F8E0grxrlefs1ypVXzlZR9DurQfnFOkUKzoNVUdr/WKUpODSHHrgHwuY0iGIi3O10FYmsTWhG18aSEP0LWuHXRGWjWR8w1QMRsI0RuUNOcx6gLzg3rkPBk1KgkB0rNHA7APn9PYq7aqvlTyrWb2oX1nvLQwGK6x3jc3Yuqud7sTaPasLW+PKfXxf4OG94ThByHFd3bzG93CprinGGY66ElXGdwuKgv2Lo/LPrhdn4xjQHC2S40gPINA9yGwFovH4gcmP1dqO3CALn3/e9Jaggp1hxqAY9VI17UO/fqevktNtyHtlisAuFmLIM+e+NVlzUhRWhw3W/MUupbJ25Bcqj1arySmtn0ILQ1cM1a/c6+MCJGxMzua18UL9Bp0wXlRuPr6ax127kYOTD7ChYZonGt2Pz3pGq4gGD2uYatV78wPLG9pza0yHPM7H7uUZGr1mnT1deM27jpdbm2ei+o3VpdWNSA1Reidu3bXReuR3qttKJXt9a+6k2sIzeojpi0Lqgm2wSzXxh75dYxMpDTvByyrtMgJDD7A7RvdzxQ1eC6Xy3r3Xp5rqt5PJGs15puXJ7stNCZqbZ7fjHonNtax/paPgxQLj7XuNTkvL7zdufYc7YVm/Ny8l21PkBj97l9guuYGdBGeuHhuHrtBWvXgVzkd9UFd+oPpud+yEaWr9merTHXaOh+rW/ywW4qsa6O0444kHoAMW5g5Q706VTH2VH1iOlpVm50dcwWOlYxOHSJlUucbcEeN5qKspJwTXHdwT1wza66Xr73nWgTfMBNn9xX+JUZ0HbpHc5rCc0xvEZnoMmX4l5dKTHBxP7v7tgH94zrRtbL13bDmPYUzvX0oZXaeq602mfEG9uzpj6oas6RD82lRR3Vlz2JwDO8mGXCKN9oOFkgfNaAnj7yAcS1DXPVANZ7WMtVlNre9bLWu0eBps4D0g6m51x7zAQcxLKoxOl73M07k/7CJ52ijNiamI4a9TTGRbku8fU3f3264hNfszhA7Zr6TSg3VJ/SgPgZupP5Y9NDH3zC9I5fPMPjafrjf7hjuuxDXxYPNdGW20HzOHVZkcqlTmtVcJ8ZrsXy4iCTpJCLtrvooftxczJX4iavjpmGB9Pdf3aOhzZJB16nTDrjdy6/Y7rwsi+JZzV6DbUokQUaGSL2S0t4nHI4rJMmP5ik297wSNem6dl/eJNPEhDtmN1UCl+DmVNjPTS4PqmulX/B6sx+5MP2yYsdFTt2VMx9jcNIl58ZCNR8T9D+4Jc9gmsin9/2e7VkvbGP+mdAK9eYxnrmQ05n9jVPljlg9nfvSUDvIU4tOmW0GiKZhnDmOKAuxauw1vuhttnVR+SM3/qBO82uvFPjPkb9ib72Gwxgx70+mH78mu170iKvjpmGYNan6a4/nT/ukEMamcXHHXKuv0o+6i687HY0V30G+yOgZuWGEbV14ledn2oljsU0BLMOAkPXwA0UusdZ46s19Fi9Htv3pMCue6D5OIED2ug7kOQ0IwerMAe+xibm2APkFkRmXNHPQWNd/GbMx6YLn33q9OafO0PsYc5nTE993El+zTug98DcBiOdsfb90duu70lsu/KRK/6854j5HsTGe5TuWfqXVzxJcx+t8b7hdfAbDh21XO/W6fenzz95etGTYaekWS7ae5/Nb7g7fave0VjXftzPkDRF+Gvfk4DFUxAddJC1dBIcqYmdcnYi1egLZLYgtMizAcEMzgPir/4mJHIjFoxWiuqdvkf1gU5+99+Tek9iPKFZwzqzrxBZHbBmxcCHRpa6mPUx99PGrA9M+pvjlb60zv2KrN9i0ofeD+q75hea64sV2cbt7+4WkKJRftSm0aU9Ic5rgWWbihRYrVXhs95jthUMrx1YS/K5AuKP7pXqZSxcmz7VuHYwPfsDptorlhuIWSzfsqqugRvI2ePbL36USvwlVj1wRwe/+t23TRddji+zDKtTwoh7HOjlFek4PBZ60VMe0sTR7oLHystDIJ+wafqZi494uRyCzRFybmKx+oTqgfQm7znBcpL8ptkoQWt6MOVK3e0Xyyu4+JB1IlT22BkH1l9z+e3TRe/2V3DRGqAAF6CM2OQGoSfbJc4o8SD/T79x1vTUxz5Y/YqDn/wotXOOuNHFNASzDgL3dHwEgi0uexI+C+vn45oeFrmom+ttjzkqJv7Ro743Sax7kMSsC+v+pH1x39aXWv77htDFVCNe2KCvUZz9iDZCthlZ7ZdzoY30Nt7z7U6w69szA7X2o+cL6Lndnx2vM1fQRm3M+hbUvnqg/Kbrq/1FzOcqNei3e0+dB5BJ8k71Ljqzz/nGZMZrfY2F9Y3OV0c1feuLuNTIoW/8u7nwkzs18WTy2FiPuMm7rSHruB839MX99fquevf8Zj5JgmY2o6AiNOFNT1vbS54bvpFCdfcNTdZthMhFHcWLMXK+h135gvxU8TYbfnuwOEejO6DR2Mffk9I6T0paPJFhoc1cv//AbP9xnVaQriyPrX30NThX7k/FQs+8cFMLv2clv4asLYab3dMX5+jY4vuS2cH0Y+8TT6ZNZw4cU+issZtKrKvj1I+/8PpHq2Ld4O0N73SRthiCaRb/3t/eOv1uvt0FtIGRjDjCLiLfY0U68ur90OmVz5n/qGew/MvfftN09ae+IuFcrzn5uf6Ld3ssyLyzxiNfHSfPaei+uq3e7knVWB/MshxKXRvHKlHjFVR1jsXk0Jqe38fA5+tZ5LMuxi7cXMfR6ZwzHiB2qNgD1W667Z7p+i/cTfbV9LmPPrvlGNzneIsu7G93EAT8dDZPqueBfd7uADmJn84hngtGlIGmg9PIjaDnZb1ygHWxbBdwfSdGFxptt3IPnFupkyFs/J4Uxk9Lz5Y5XTGyH9gK8u9FVRe2vci+T0Gzvqg/aLGvaN79hsNYF8v+RGv2JrcRmj477fayaM999fpc5ufvSYuHRor2Rr8NVM2kY8whoHEKJZtvTqxXDvTy7jfXWdvtAvXDjD4Xb3a1rgNtZ26Doi/f7rRTmmGN3d9lnTreb3IvIq0x1+Uwm/bp44n+WWuYxs36YlxUi9wQ1Kbxe32Gea621djPObLazm1eSUOgoTPPen0K2Ad879LWOEQ3ggzdydghU+UeEH6tGqFX45o+7TVfBz7DXiAOTec83NlfKM4540FeEX1tZUe9d4pSQziYnvleyUoLeyeeOXrhOH2B+pxzDnjtjX/0GOV49YaOlEb4cX1+FT+Y/uA9t06/L6/hCugYP4q6QCIKmDvI9Jy/8HmPmF75vG/xaDsOnvtBOo072e+WWExDMOsgiuWH/p4UCYLqjm4NddbwDP34Ms+z+Eibo/D0qBK8yAGWHSNylXvo9cUXeW9A58172QPVJdxfayerv92T0Kjn3wfDJPFvEhqDRnrsWfPbmJuOhfaRXZ/tC/O2i+vD26S9Ue4NbRN98njC91x3f+f6jmnNbPP3pJxJFDEX1FnvxYpl+xyDA66G6RgOn35I+iliIjTO95itYtbPlj3m+CHOtYsd9d4x6G2x8z2JOfwwj/W7BsVsJXfDzffIwvDvRcK6Yvh7kTB/b4J++NQTaTVxn3O/xuz3cmGcc9/75xW8dUXhNw/r57s31hmj8463OylsZltiYGW1dJ8MlHkpt9BxuA8n/LOwkjTKLCE0zveYDQgGxNdxHpsueNzJTRlXjREXGdXUwYIDo5j03r0TDL4nFW1f0/b2FHz2lq8J+ROL1QPzmPV4ksOsD++n+X1btfapm3nFaHyPfNgDheZx5He1FdhKov60Huznht+Mn+M189qI3Ze3O3H8qbpviPbeuQKT9HX3ZuQYCkI/6/QHTN/3bfVfj6JBNOo0XkW05T6m6YUXnKZhq4oPrTdAh/6ClVssVkDkKgPiL+455wukzlcSP33hb2E2zs125Nav+RNq+868Ymz/0Rx0yZtu2vPPO8X3otova1st2rr5Hnf+d5wsoe2L8/jacYArPpMrifvvnGdhgxpM0kKf+y17kojM+YYhjJlfxBb1gdpj09Wf/oqFgEpy4e4acCPcBTz43nPjX+lEkltxgy0offi4nyL7kWVsTHZTLLJheLYZYKwkBufDb9vsBN/bhPnznqSC+xGHv8WyPT9dx6YbZU9qV5CYPrmmsa4ry/3Dp504Pf97HpL9zMZP4/y0zdpIb2t+6smnyX50SOQyNpivoDo+GHDFdfiDZD0nrGi9e8rxyMrvBjf87m4r0DnM4SvtyK1fn67x1TRXeJ0OAj/4TwU7io7UrzzjdHrTqwiNOQyoPOPsMw5NF//82XH6bOY0o6Nf8o+fl5VEnw7cIj9dQouWYQCx1vdyLWQlYfbDpGgT9ww5Mnzu+2f/NZ/6b/t8lzhXkD+tappb6mfK96VLf/mw98nnGXFYLz/bG3727OY8uWI646j6FR+5zfvs9C81c65nXM+8but70pDXgBqxfKqm6W+utf+FnGeym4yDQxeGAVhJV11kv6Q1NC0KhwGVDe95xbnT+Y+V70aApOI8AFwNXQuf9X++Dv/8OZUWG1bFKuiecT+7vydtidUfPxVHZF+6+lN3iWtPZz6hMH9CORemT7TY4dMeoBN1luxTkmiNx9KL3R4pk/3h1z5uepK+0c39q+8rpZ6XNdgl771puv7z/g9TYPVepPG9GK2aUUy697/jf1WxBnTg3H0zCdiJXv62z1soyCpuJuY0g/TDpx2aLn3ZOdOvPvNh+j3KENXCeg0UO+PL6q8/65unD7/uO9VHyu5B1Fi1TEM4DlXsqM6x6S1XzNdg4AbBjJqLeq6tMRCx8cH09HeLF7MkrO6uGHAHf+8xp+VaJ/jzXzhrOu/ck0SxvynhYM2NU4+45INvvPWe6epP3jVdJXvdpR8o//RL8med/sDpSd9+sk7Krz3rESq2/Zk/6yW2AtVUFvzLx+6Yfvi3/90CBd1YmnDVNezlnfeMfZLMNXLeOwbER4gea53gTFkN7/2tR4kXN8Nvghwi9h+J4agy1+A/+BqaD/7sLfdYLLquFuh2SN36Mx0uDqk7awnHznCefuFHpvfpfgTETXQMbzJAuZRrXYmLfuL0mJ+4UD3AxmdgH6hxIjoE2A9AE5P2d37lf/SV/GnfZRt3Uy3BorULSoukAdfzTQ8+QezE6SEnzX95YWTojlKpCfD9Dfc1l94wvRUfdRBwH5qbKBZhOs7cWdZRTabd6fbLb3fDSRhBetiwF1W869ovTR/89F2esrxuzObFzxw3FHWGuCYw3w+4GqYzI3Wnpl3owuG/76Nfml7zjhssaN7eGKLlveghcpWBXq7VDqYfepd4MkM6STFTNRb4x0BTo0Q12Q5gXUDt8bH397/5aIvwsYJmnq8fMxrhh/Wocz3iYNVLO4hgrSN90Y5i4PEv/dfpM1/0L6+4Z5B5ZiFmGI6zUibFrfltcfl8GPEaUNOrH7W1X7q+4m03eSyKlOb4BHA1DC2FWQK43UJ3Hw7nFBBc51zTn/AzXnWdTNBXTVAsWjgD7AdC43aVd+PE6dEvmPekfbC6vANSo0+e+4RPHPmq7U+P9y+WASqrZ+BuOBc3dgHRmzrnBqUGQH/PvOi66f0fw5tjp4eUwhno6Gi48kKrsUDr53z7/4gC1DgxN2p9B9ppW85XtPpl194uK+pzHklW0lpRusjQNbsGC1wSyH4lgcuCeZ8zPRKm61El5+zv2PSjr5YJ+ji/2muBuYoaB1gXXtxLynUZgM8xuvnBd8q4pDft0JnjgH9Gp5YxIH6GHR3nbOoBj4XOPPXQdMlLzp7OlO83Vub7gzMOJhed840OCX4bR7167miNxzfcfPf00jf+53Tlxwav2hGnzHnxF7qzUibFrfn12Pak+pbGMa6gC9SUdguwzvXAHB+57Z7pRa//zPSuD97u4zMdT7WFzlX3ozbSn9AN9uucCPKgxwzFQO//+B3Td7/s36YrP+6/m9v5tsb5kR/o5Xt1fZw4Pep5++1JOvi1E+zKO5rJPybfoY5O/yH7FL5LfausrFNOOtFz1FvpdnEWF6qeE9UBVs+f/N3npl9646ddAagjjFM74E4orwiH9UyKW/OU47Ypt3UH09Pe4YrfNf1YUIcoNMEiL4wesmSHHsh+KuwV/VlPPHV6yY+cIWX+EeX1/PEERyP8sB51rkccrLr897rLj0yvvexG1Q1+KwK4SWiWciffwOM6CRmGU+sijkMbH0w/8Nfi2gUohxuOX9wyDtxLPaB5jGZZp5N13qk6YYd9v2putjnKqns+48Jw8Zfid15583Sp2Gdv5tdrwpbJGebFr3pv0rR96LWujX2SzDVyXsSA+BnWujw4WAc4J0C/OPMoX3Dm6Q+SlfVwnazzzj1ZbzqaNJPgrDr+8/yNt9w9vfOqW6arP3HHdNUnv0w3o6LoGdZ6jxf9DPR687MuD8bhZt74YPr+t7tnF6tXqFTiwLAuEHoeHKTjjIt8oGhNPWArDJOGf478xHPt/y3ZurOi/7oV/1DkYLrmk3dOV2NS5qs3RH8pl3zC9VEdbmKvn2aSyK+TVes0pBp3VyYpD4bupImfYckvdAf6wRmbfCM4XF/UHwfozUW/6LiHoi/qPAbpMEf1hbMs4lFdFgqwJz31r0SRM+VNcGcxaVng6OnkD+vFMIZFPlD0rNdIsBB2AxeN8ykjNnlG9FcTHnfrQcJNM9Ib9HTxMwyn1hn3f7ffBWp6daxVf584MNIDkYu6akDRdD6DHaElqs9xYA89zzWqF+DrTP2O2oGspL+MFk7CUDTMM5lujhPlFKRne6DULdoFor1YtFdm4TiBV0BwgyKMVkxg68oJlJWyqNNw1ua/J6UovGF2LdfLc3ug1tU40NF1XkLjfKlboNZFW7fFfNe6QI172FJfa0aIHDP2pAve4oqPvK6Y1I126ltW0iLfCIaUa/1xgK4M9AtGbPKMIjRPOrAxr8S50ItW6zJvTCupggupg4B+nrrfoNZviYNZD4TO+V7dGrjdWh+cL9j0kNT24Y/65XxgqR1MT/kLj3wUSjSizSsLEL+rC7Kfik6dPuGj+grU4RIq74HFSggUXccFtjAdkOpcT37VMwzHOesitoOsJErgRIrQGK7pftPLA6zXun3aBbM/Qq1Zqw2ghk2Q1w6QrtgRL+4J+4zQhZt9ewSrOZiefIlXyyh1oDza0AB39EmPMJOCyBu1OUHTDij5wM6VBD062oc7yPQgX9sN6z3equv1OSuizmiOjec9CY0UWSlgPwAtdMp3n6YSN09PzQdC25LfhxmuDT8Vtupb6wKu572uiHZhhoPp/DdbpA2pdT7J3KP4GZb8QnfstYLAFi4xTOyBOMF8AxQpixMruUGt3zOv/TornLOs6plQ0J4EtEnDKO/+lhW0GgdYX8tXA3rcMyCY0FwD51nfik57fb56/SDX01vISnpTqdIek2ZnX92xdSVxP4v6RrgPiH7KJS/kku/VK1gXH6H2U+slHunmODsQ0uV2viehojRSbNX3jR2r+0MwG7APV43RqwN6tcCgjm6swetG+gilvrOSKrxFNuQexO/qgMfDvGO4Fw3qjyvixOUWZFhvjcfZbCWv4Lz4XX03Vn7jEECHo05ZL3U796rALp3zvbotqO139Slas1dwvWDn81Pq92q7xIaVNIKfLU9az75HHiNo6hrh/wDlFmQ4uDW5x1i4bF/bDfrZiA0raYRdA+nFrHFc9eBe/ngg+uZzMLbq+8b3DvdhkgAZAJ6atPq/96z/u9Aw0bMt+z2LPsDse17bUh8RR12N0+8Z5Rf9UTu9rlLHBk3t+OA+TlIH+inFA6wDHg2e60Y1gtwron4QN3XMDM5RPj9pi16xte4+YZr+F52onR+WwYVLAAAAAElFTkSuQmCC;fillColor=#f5f5f5;strokeColor=#d7d6d6;fontColor=#333333;opacity=50;" parent="1" vertex="1">
          <mxGeometry x="404" y="116.00000000000001" width="46.67" height="48" as="geometry" />
        </mxCell>
        <mxCell id="1ipDuGfdl1B0XLeZwhUJ-45" value="&lt;span style=&quot;background-color: rgb(255, 255, 255);&quot;&gt;Wifiman VPN&lt;br&gt;(backup)&lt;/span&gt;" style="sketch=0;points=[[0.015,0.015,0],[0.985,0.015,0],[0.985,0.985,0],[0.015,0.985,0],[0.25,0,0],[0.5,0,0],[0.75,0,0],[1,0.25,0],[1,0.5,0],[1,0.75,0],[0.75,1,0],[0.5,1,0],[0.25,1,0],[0,0.75,0],[0,0.5,0],[0,0.25,0]];verticalLabelPosition=bottom;html=1;verticalAlign=top;aspect=fixed;align=center;pointerEvents=1;shape=mxgraph.cisco19.rect;prIcon=virtual_private_network_connector;fillColor=#f5f5f5;strokeColor=#d7d6d6;fontColor=#333333;" parent="1" vertex="1">
          <mxGeometry x="491" y="220" width="64" height="50" as="geometry" />
        </mxCell>
        <mxCell id="1ipDuGfdl1B0XLeZwhUJ-49" value="Minis3" style="sketch=0;points=[[0.015,0.015,0],[0.985,0.015,0],[0.985,0.985,0],[0.015,0.985,0],[0.25,0,0],[0.5,0,0],[0.75,0,0],[1,0.25,0],[1,0.5,0],[1,0.75,0],[0.75,1,0],[0.5,1,0],[0.25,1,0],[0,0.75,0],[0,0.5,0],[0,0.25,0]];verticalLabelPosition=bottom;html=1;verticalAlign=top;aspect=fixed;align=center;pointerEvents=1;shape=mxgraph.cisco19.server;fillColor=#005073;strokeColor=none;" parent="1" vertex="1">
          <mxGeometry x="645" y="351" width="27.500000000000004" height="50" as="geometry" />
        </mxCell>
        <mxCell id="1ipDuGfdl1B0XLeZwhUJ-50" value="Minis4" style="sketch=0;points=[[0.015,0.015,0],[0.985,0.015,0],[0.985,0.985,0],[0.015,0.985,0],[0.25,0,0],[0.5,0,0],[0.75,0,0],[1,0.25,0],[1,0.5,0],[1,0.75,0],[0.75,1,0],[0.5,1,0],[0.25,1,0],[0,0.75,0],[0,0.5,0],[0,0.25,0]];verticalLabelPosition=bottom;html=1;verticalAlign=top;aspect=fixed;align=center;pointerEvents=1;shape=mxgraph.cisco19.server;fillColor=#005073;strokeColor=none;" parent="1" vertex="1">
          <mxGeometry x="160" y="360" width="27.500000000000004" height="50" as="geometry" />
        </mxCell>
        <mxCell id="1ipDuGfdl1B0XLeZwhUJ-57" style="edgeStyle=orthogonalEdgeStyle;rounded=0;orthogonalLoop=1;jettySize=auto;html=1;exitX=0;exitY=0.5;exitDx=0;exitDy=0;exitPerimeter=0;entryX=1;entryY=0.5;entryDx=0;entryDy=0;endArrow=none;endFill=0;entryPerimeter=0;" parent="1" source="1ipDuGfdl1B0XLeZwhUJ-53" target="L16uUGfxBeMjkfwXHV19-3" edge="1">
          <mxGeometry relative="1" as="geometry" />
        </mxCell>
        <mxCell id="1ipDuGfdl1B0XLeZwhUJ-53" value="Minis2" style="sketch=0;points=[[0.015,0.015,0],[0.985,0.015,0],[0.985,0.985,0],[0.015,0.985,0],[0.25,0,0],[0.5,0,0],[0.75,0,0],[1,0.25,0],[1,0.5,0],[1,0.75,0],[0.75,1,0],[0.5,1,0],[0.25,1,0],[0,0.75,0],[0,0.5,0],[0,0.25,0]];verticalLabelPosition=bottom;html=1;verticalAlign=top;aspect=fixed;align=center;pointerEvents=1;shape=mxgraph.cisco19.server;fillColor=#005073;strokeColor=none;" parent="1" vertex="1">
          <mxGeometry x="590" y="350" width="27.500000000000004" height="50" as="geometry" />
        </mxCell>
        <mxCell id="1ipDuGfdl1B0XLeZwhUJ-54" value="Minis1" style="sketch=0;points=[[0.015,0.015,0],[0.985,0.015,0],[0.985,0.985,0],[0.015,0.985,0],[0.25,0,0],[0.5,0,0],[0.75,0,0],[1,0.25,0],[1,0.5,0],[1,0.75,0],[0.75,1,0],[0.5,1,0],[0.25,1,0],[0,0.75,0],[0,0.5,0],[0,0.25,0]];verticalLabelPosition=bottom;html=1;verticalAlign=top;aspect=fixed;align=center;pointerEvents=1;shape=mxgraph.cisco19.server;fillColor=#005073;strokeColor=none;" parent="1" vertex="1">
          <mxGeometry x="702.5" y="350" width="27.500000000000004" height="50" as="geometry" />
        </mxCell>
        <mxCell id="L16uUGfxBeMjkfwXHV19-5" style="edgeStyle=orthogonalEdgeStyle;rounded=0;orthogonalLoop=1;jettySize=auto;html=1;entryX=1;entryY=0.5;entryDx=0;entryDy=0;exitX=0.5;exitY=0;exitDx=0;exitDy=0;exitPerimeter=0;" edge="1" parent="1" source="L16uUGfxBeMjkfwXHV19-3" target="1ipDuGfdl1B0XLeZwhUJ-2">
          <mxGeometry relative="1" as="geometry" />
        </mxCell>
        <mxCell id="L16uUGfxBeMjkfwXHV19-3" value="&lt;span style=&quot;background-color: rgb(255, 255, 255);&quot;&gt;CF Zero Trust&lt;/span&gt;&lt;br style=&quot;padding: 0px; margin: 0px;&quot;&gt;&lt;span style=&quot;background-color: rgb(255, 255, 255);&quot;&gt;Tunnel&lt;/span&gt;" style="sketch=0;points=[[0.015,0.015,0],[0.985,0.015,0],[0.985,0.985,0],[0.015,0.985,0],[0.25,0,0],[0.5,0,0],[0.75,0,0],[1,0.25,0],[1,0.5,0],[1,0.75,0],[0.75,1,0],[0.5,1,0],[0.25,1,0],[0,0.75,0],[0,0.5,0],[0,0.25,0]];verticalLabelPosition=bottom;html=1;verticalAlign=top;aspect=fixed;align=center;pointerEvents=1;shape=mxgraph.cisco19.rect;prIcon=virtual_private_network_connector;fillColor=#FAFAFA;strokeColor=#005073;" vertex="1" parent="1">
          <mxGeometry x="484" y="358" width="64" height="50" as="geometry" />
        </mxCell>
        <mxCell id="L16uUGfxBeMjkfwXHV19-9" value="" style="shape=image;verticalLabelPosition=bottom;labelBackgroundColor=default;verticalAlign=top;aspect=fixed;imageAspect=0;image=data:image/png,iVBORw0KGgoAAAANSUhEUgAAAYkAAABpCAYAAADP7t+LAAAAAXNSR0IArs4c6QAAAARnQU1BAACxjwv8YQUAAAAJcEhZcwAADsMAAA7DAcdvqGQAABy7SURBVHhe7Z0HtBTFEobbgDmLWVEMqBgwiwkxYEYRMxgxK+YcUcw5B1BRwYgYEQOomMWcMyqgYo6IiiLvvW/seWdZdmaqu2c23FvfOXu4s9y7uzPb01Vd9Vf1VP/5H0ZRFEVRKjC1/VdRFEVRpkCNhKIoipKIGglFURQlETUSiqIoSiJqJBRFUZRE1EgoiqIoiaiRUBRFURJRI6EoiqIkokZCURRFSUSNhKIoipKIGglFURQlETUSiqIoSiJqJBRFUZRE1EgoiqIoiaiRUBRFURJRI6EoiqIkokZCURRFSUSNhKIoipKIGglFURQlkVz2uP7zzz/NH3/8Yf7666/ouEWLFmbGGWeMHnkxfvx4M2HCBPP3339Hx3m/x6RJk6Jz4FwmTpxopppqqug9Zp55ZjPddNPZ31IURWleBBmJX3/91fzyyy/m559/jibZcuaYYw4z++yzR//68tNPP0XvMW7cuCneY9pppzWzzjpr9B48fOA143PgfMrhPXjtOeecMzIYiqIozQlvI/H999+br7/+2vzzzz/2mWTmn39+M99889kjGXysb7/91nz33XeZ74HHP++885qWLVvaZ2RgIDgH3iML3mOBBRaIjIWiKEpzwSsn8cMPP5hvvvlGZCCA3+XhAhO31AgRgvrqq6+izyXFxUAA78Hvs7JRFEVpLjgbid9//z3y8InbS2FVgJGoFM6pBKEl6eQdw6TP35BXkEB4yfU9yLnwN3HuRVEUpanjbCSI3/tMkhgKJmYJ/J6LEYohsS3x9PksnIcPGCHpeSiKojQ6zkZCuhqoBH+bZWD4/5CQDpN/VoiKiT7kPH777Tf7k6IoStPGKXGNPPTDDz+0R360bt3azDbbbPZoSpjkR40aZY/8WGqppcxMM81kj6bkxx9/NJ9//rk9cockdps2bSLlk1IfEAZ9/fXX7VE6Cy+8sFl00UXtkaIoaTgZCW7Ejz/+2B750apVq1SFEKuIMWPG2CM/llhiCTPLLLPYoykhp0KiO4S2bdtGxkKpD95//33ToUMHe5ROz549Ta9evezR5DDGXUhzRpTGhqiGS9i7qY4FJyNBmOajjz6yR37gwaXVTRDvHz16tD3yY8kll0ytaSD5PHbsWHvkx3LLLVd3K4l3331XlC9ZZJFFImPdlMjLSLz55ptm4403tkfpcC+oJLrpgpFYaKGF7FE6999/v1l77bXtUdPCKScxzTTTBE+MWd536OtTKc3nTCN0BTDDDDOYqaf2Ug8Xysknn2y6dOmS+ejfv7/9C0VRlHScZjraU4QsqWihkfX3/M70009vj9xhBcEkngafIcRQ8Bnr0UgoiqLkjfNMl5Z0zoL2Fnj6abAKCFnCS1qAYOx823hAyDVQFEVpJJyNBJOrTy8mPHzp32Ek6MnkCq8vNTD8ns+KZa655vI6f0VRlEbE2UiQM5hnnnmcJnHCO/RWkk7KePr0YXLp8Iqaae655xaHgfhM9JNyMRQYB85DURSlueAVWGeCpWmfxGsnNMPvuoZo+H2UBZKwEN79ggsumCp7rQSfn6Z9ku6uGCDOIyRfoiiK0mh4GQnAUFCUhJySSbo0WcxKAK+b/+PhEzoCJm8MBa/BhB4nm8lr8B48h5STid53XwmMEK/B+2CYeN0YXpNzQ7bLuaqBUBSluRG0n0Qp8V4PvByTeFHqn9JNh4ogbunBOcSPRmHbbbc1zz77rD1K5rDDDovksk0JWtf369fPHqWzxhprmI4dO9qjydE6CSVG6yT+JTcjodSe5mwk8kKNhBKjRuJfinH3FUVRlCaBGglFURQlEQ03NSHqLdxEt12aKZIvYNMpembRSRixAGEaRAGLLbZYXfWRqna4iQ22eE92VaS5Jb23CHMAQopVV13VrL766tFxLXjvvfei7rpffvlldBwXuyKDjx/Iwn3FKT4wpuJxFe8uyTTG5+KBEpEmn6Fy9VqGm8aPH29eeumlaGzE4yGG+2eVVVap2rhQI9FgPPzww+baa6+1R5NDgz/JZkootbImZn7nqquuskdyhg4dah544AEzbNiwyEhIQDVGe/ftt9/e7L777t4Tzi677CLq4nrCCSeY9u3b26PJqYaReOqpp8wjjzxinnvuuagxoYQ111zTrLPOOmaHHXaIGlgWBZPvwIEDzTPPPGNefvnlyIhJWHbZZc1ee+1ldtppp0j5mCfs/RKPq+HDh0eOhgSMLJ+LMbXjjjvaZ+VU20gw9u69997o2r/11lv22XQYx+uuu67ZeeedC2t/r0aiwUDBc9xxx9mj4mAieuGFF+xROm+88Ya54YYbopvYtdV2OUww++yzjznqqKOcJxtWJXhgWdx4441mq622skeTU5SRYGK7+OKLzR133BHcph4vco899jBdu3bN7FMm5aGHHjK33HJLZNxDoFYJY3HwwQdHHn0ITLy33nprZBhCoXD2yCOPND169LDPZFMtIzFgwIBoTL799tv2GT/WW2+9aFxss8029pl80JyE4s3IkSMjD61Tp07R5BdqIIDXuPzyy81aa61lnn76aftsY0MIkAnkkksuCTYQ8Nprr0Uhw9VWW8288sor9lk/CCNhFJlcQg0EsGvjFVdcYVZeeWVzzTXX/F8a78Ljjz8eecg4C3kYCCDciXO1xRZbmM8++8w+W1tYRRJOxHiFGghgBcI14/vkfPMieCXBhyFmyUl+8cUX0aCguI39FhgoecSbWQJzo33wwQfRz9Rg8B7LLLNMZD3z6KXEZkp4xOy8xznRfoTl24orrhh5bvXSr6leVhJXXnmlOf300+1RcZx77rlm7733tkfp1ONKom/fvuakk06yR8XA93DQQQfZIzl33323Of744wvdsx1jf+edd4qKXXEQGNs4HEXCCpWQGiG8NIpcSfD7TOhFwSoOY40DF0qQkRg0aJC5/fbbEz0+rCQxSmLFvstiJkWWY++88459ZnL4onfdddcoJucDCUPOgUGTFB/ebLPNTLdu3czmm29un6kdtTYS5Dz2228/88QTT9hniuess86K3jOLejMShJfOOecce1Qs3AOsVKQccsghhU/GMThy99xzjz2qDN599+7dg3e+lMJ8hPFKm9iLMhKXXnppNKarAQIVVp0heIWbuHjnnXeeOfTQQ1NDAq+++qo59thjzRlnnBGtAFxgVYIHRpIxyUDAiy++GP0eHqerR/TJJ5+Y3r17R55YWgKRJCMX2ieR25Qgrt65c+eqGgg49dRTg/dWrzYkpatlIIB8wjHHHGOP0mHMV8tAAGGQNCPPfvObbLJJ1QwEMJb5TOy2WU249tUyEHDmmWdGyfAQvIwE6poLL7zw/y0ysmDJ7TrB4jHzd5KYJuqHiy66yNx88832mWxQbVx22WXmtttus8+kgzyRm55VTXOF712qxskTWqXgLDQKxOUlK5+8YSWVBStmwhDVhokqaQ7AySsy5JUEYWW8+mqBIa/FtWfVGOJkORsJvMjrrrvOHsnp06ePueuuu+xROvfdd5/ThB/DtpxPPvmkPUqHpSZhJhcmTJgQnTsrpOYIce8NN9zQHlUXvFE0+40Ak4HryhlVED2lCFm0bdvWSRlEjJ2xjKIoDXJ6Wb9TJDhZ1DWUQ5isdevW9qi6cD8TGSkarv0RRxxhj6oL81ZI/sPZSKBXrvRFZ4E3iMxOAl4HqwNXxowZYx588EF7lAyfhRiiD3jS1Q63lELCnomk0kPSVh2ogaj096UPkvXl0CEX47rBBhvYZ5JhksObxuCT2yCUQNETD2L5OAxJeYEkhgwZYn+qb1gFS9ltt90iA0hMnvNjXFJHwaRCOPTqq69Ovd6MB8KhkjyKz+qGFvxMbty75Gv4/h577LHII95uu+3sb8lgsiIsXA5jZfDgwSKRy+KLL25OPPHEqF4IZRfXLR5XCGiQYifVwFSCiAKhwaLZf//97U8ySPRTE0OkIz6/Tz/91Dz66KORamzfffd16krNeCJH5oNT4pqQCxpc35ADFbZMGhS4JEERCZOHb6wQRRLvwUSYBDchhVu+SBJxtaBaFdfEc0nkM7mVQ8IbxYxUq81EiHcrWZ1huLhJkqiHxDXjVqroQ/ix/vrr26N0CBfgiZcaypVWWimaRKh6zoJJnXi4FNR8CCSyPFAcxrPPPlu0KkfpxGfgc1di7Nix0fdCjqKcDh06RFJRCgolMDYZVxLJMedYKX+UV+Kaa0P+VgpyZO7PLEUlq9XTTjtNHKHBqHCfUTPigtNKgjL4kJg0FbhxeX8SfKkhyaTRo0dHnzONUaNG2Z/8GDFiRBR3bq6gDKHIqVxCSF6IVYNLMQ/tE3gtSZV1vejb05CGmbp06SI2ELD00kubm266yRx++OHRMQICVs0SA8GqnByiFGTfeNeSEAUbcVHX0rNnT/vMlFBNTwiOYsskAwGsWnDwWB3FMKHhkCHXlRoIwJG7/vrr7VE6ofNBFi6qM6TlfFcSyT1tR1hpcv0lsJLj9V1xMhKsJELJeg1JW4kssl4jNElGwj6Pa9HIsBwm9ERBFz/jSdH+wAfCDciMs+CaS1sy1AqpgyOpG6gESV6Sz4S0pOEGvidpoSMTOqEf175HvXr1mqL1BRM84pDnn3/ebLrppvbZdFiFYUwwfkQFCCsx4ftAjgcnJAtWMEVBgaLUuWH1QMmAK5QY0KFAAqsaqeAoxslI0NwrlNKd3yqR9f8SKIRLI3SHOT5jI21GVBTsHMhSl5s6aaktRbr1bJ6VpEWANywBo0qozQdJTqgUwloSKFJFgeTbe4mwE3kxHqecckoU2iAs6QphQ8YUoTV2pQxBci4+OVYpUvUkNWUh9QyEeCW9m3CgKRtwwclIoEAIrTwm8ZRG6KBg8s56jazPkAXXIS3n0Zxgck8LIUggDCkVNVRDiRICTeUke6bj2eNd4+UXCasv2nhIIExIlwRfMA6ElWgMSAw+xBkjt+UaOy+H/JKk3cXEiRPtT/nCqlIipAGXfFES0uS4JG9ZipORIPEcIoGkWyFffhpM4C7qhHK23HLLzMQh7TzSkudZ+C5/lclhoiRswiqk3lcILmy99db2p3Tw6ojlMxapQaH6P29clDvS9idpcO/6dMbNE/JCqKikAoSikDbIXH755aPQWChU3UvCmIWuJCDkwlNVmXUSDDCScr5IZJUYET6LD6xUaj34GgVECnhzNGwjOU3h0tFHHx21UCHpzfIYBU0Rk2MtcZ1sEVoQnsF5IZRE4SAeKK3fpe3Wk2BPAgnkALJ6GdULiFOQv7L6JJlP9wcKxpDksqqlbxwiilrDikoCHSW4/qEP5jVJTowedS44GwmWyD4JSiZvvHwJKD94uIJ0TGpgWFqzsnGFZfRGG21kj5QYbghUGej+kaoyaLlhMagYBVQ5tCOgSBKjgea7qdKuXTuvBCQwYaDKod12x44dI1UT4U2Sk6hkpBNPDPp4CXl4skVATQahGCTrrLgYV4gl6KPG/U4rEsYdbUZoEZSlnqwmSKTrEZSZLsWezkaCmCsJFheZI4Odv5Hqx1FWUPjjMoljgCgwkSa+V1hhhWjiqlQ0lgQTYJrUr7mBl4sHjCKGFsx4dBR2VdK5NzfomcOElgfc1EyWJIa5zkzoFEZJVmD0QJNAlXe9gCSVe5m8H8aRGg9qm7Kk7fVGPRmscqTjApyNBDDZY8Fp05CWXCKpyaqDzLtrcpOt+WgMiEeVpqpCX0/RDBI8vC4X0KkjO2OZmvYeqC04X4p56qVleK2h6hMDSyy9Fn136h3GCYV/kn5KriCppPgLY0FbCToIJCFN9EvVZUWCvJm5gnufegl0/Y1MPYssCl1JxDAh0z2VyYJVAl4/qg5yDnzJrARo0EdsEHmXDyR0zj///Ejbe8ABB0RFPi1btowME+/B+/J/VB369n4hCc1Ex83G8hV1B7I5lBqsgOhiS8EK/6qi6d/CLMJHdGaVVDc3Z1DZYShCqvvT4LugRQWh3KTKYqlsPQ/peQiEHwnj0lajqZDXroFF4FLnFbzpkFI/FN2WgyIcYsEko2sFhVmEtypRD205kqDxJA5VUX2/UB4S6it3lkiEp7Xaj8HY1KoBHQYOhyw0Se8LIfRKNSuhbTmIUNTr7orkcXCKJXivJJTmB6uHIgwEE1xoMV69wyRITQSTETcoCpw8YYJFAllekS5t+ljLDgKowYowEMjt27RpY4+qj29RYr2hRkIRQTJR2gunErEqBWPAgz489AYaMGBA1LyuUeSXoeC14sGxsiAZTW6B5GweRoOVDcVspUiLU2vVhp2eTK6KrVIIAZObiccVxpgVERJi6hToLVUral0vkgbV9VI03NSEKDLcdMEFF0T5ISn08enRo4c4H4U8VrIBTKOGmySQY6CVBasNqqTpW+TaSLJ821l6J6G0yoLEdS0aKJLfQhItgRg/YwqjSk2JhK5du1bsVlxKUeEm6Tal3Is4UNXEpaJdjUQTokgjQZvnkSNH2qNk6OBJgZOLtBhQskm6WTZlI1EJemMhnJDkFWIowosb9DEeGBcSUBS5dFoNhRCTVJGIUIWVrLQ3VgxSfcZMGkUZCfpPSQorEcVIt56tBRpuUkRIDATguboaCJD0/W+OsPHM8OHDnTb4Ka2odVEW9u/f3/5UHVz2tKYI09VAQC3HlTSEKu1bVivUSDRDXPXb0sIbQhauHUpjpO0jGhXaSFDL4wtScmktQ2nrayTp0sJXvOHQPcypCqfRnCR0Je2+yoZDPoWJFBvWcg8SwjmSVuWsEnEEQkG0UMQue2okmhBSNYVr5ar09yUbB1WCODz9eJoiSF4J9yAdJmxEK24fqEGS1gKVFzdK2+hQlEco0hcmO6rC2SSIZDL9lNIcDLbklEA4yAe2Qa410lZESJBDu9EStqKdEa2DfLZ/TiLYSFAVSWyRVgwsH3nwMxNLyA5zpfCaffr0iTwUOmxyIRiAxJbzagFBR1KqENknm/cjvMIA59zquXKyFGk1uKu3IS0KYmnvsykQN0hTA/USLTTo4VSaJ6LwE0WXK6wOJG2voTwhiScubbvBPtF0OZg0aZJ9Rgb3Sbkxop8SIReqqCs5GlKnhnvSFd6v0n7a1aZ79+72p3SYb2hx4wtFxTzin7nurAzzwNtIYPXwBPAAmagZJEy0PPiZviX8H0tK30mWSQdFDTcaiVY8FJQbTHIMQCwnSge25PO1nExq3IB8Vt4PvTjnQAKU5SrnxiDlZ9cbp9pIjQTn67KNoVQFAdL++TH0w5Lud9AIDB06NEp8k0tIknbS3oXeRFJPmjFJxwEplTafYaKWwnfIfSV1wNiXnp0FK/0+9z5V1LTl4R5mboiR7n7H67tsMcqcgzOZxy6XobD1Ac6CBBLzGArXdiT8Tfke2hhJJObcX6Ft+L2MBMtS3pjJJm21wMnye3xprlvmoTbA60J6mTZY0djTHgR1jEs/EuCzYxi4WdMMGQaDVUW973ng0qSNa4aaqFKXUG5KDHIMCh7JRjpAm2tJh1e+X/IXVAk3FdhrBc9RUnCIkojvC6+d1h2Mw1Jwemhqh5OEVyjdmwBHoVxlA4S7Kj2fBGEyBAis2CvtP8A9jTGh5QjtNLJi/8wFRANKtzh1aXODSmjcuHH2KBmuGT3ZiAbUCy4rBFoEoeTKEhEwd7HrHe2Q+JskuL/43svrZ1zwksAyoF0nZKpqkUdmbS0KePdcWKSULmBNpV8IRoHzcG1Oxzm47v9bLUg6ElpwhapcKlO58WODXK635yZF0ieBHckOPPDAqLCJkAKTYbxLGQVkGCCknT7UswSWIq6Qm5GcDufGKtzXIcHoJNWz4Ogwgfqsugk5MvbZj5wJ2NdLJwxXWjjICkPaLZX7jr2ckc1y3WOniHsYo8aeJT5tMIqSwJYirQMqh3oQxjUrEiIZRDRYJWC4iXi4wOpQIjMvx9lIMDhcln6lUP2JsciCUBIejCsMZJa2kg2FMHLl3psEjBxfmtSzrjbcQKVLel/KjcTAgQOjbru1pp6NBJMwDSNdC+DyAiUTodi0KmsK1yhgqwWou8pb7bPyDKnkz4NqGAmgBoUxUytYVfg0W3UON4VkzSXeB8soluI+sAIZPHiwPUqG0JevJ0QuJk/lQN4Utd8FMko68NaatLBgrSF8MmDAAKeWB3mCsiirDQehIVqBVBtyNJXGJnHzWl2vmGq1JCc8JO2llTcYaN9u3E7fDrkISVwwCSbXrC8Eiy4t068ERoKwSRoYE9elWikh16Bo4s1a8oZwkWuVdhHU87UHYsS+MtcQaFdBgz8JTMzUM1QLPGjkv5WgjqBbt272qDZUy0ggKGB+qqazxXbLOAUhzqOTkcCLc01Al5Mliw3d1pJwgySJFgJ/H3odioKQGx5LEfsDkJRNCtOEIm1TXe/iASCZSzLaRRUWAuo/dgV0AYMyaNAg79oWKeTICFWmQR6RrUnzBmdJajjT6jnyhPNEAVeN7WIJP5IAxykIwclI5NHmKes1QgtKIGv5Gipl5e/zuBZFwUAk7FFEq2Li+dI+9FL69esn6nEDPpr5WoAyiPxAUUYViKVjHNje0weS2FT6IjAoArxXurxmOSzkKfGw27dvb58JB+NHa/ZOnTrZZ9KRyn3zgJDgkCFDIkVmLOjIG7ZnJiKDNDkUJyORR+ww6zWkhVtpZCmopLt1pZHHaxQJcsxhw4YV0k+f/RCYmPBUQiA5joyyc+fOkdfNToRZ1JO0MQvizxhVVna+7UqSQMU0YsSIKMxESMEXQiAozSjAyuszMjGjYnJpQ8K1wlD4CFbKIeSH8WPsYwgl1GJcUfuCSklaES+BUBb3J2qvJIGHK06zPhNjSBgDA5H196HyUnq8INNLo0WLFvYnP/DQ691IADcJ3izSwLwnKRQytGAmTOSytzhOAAogvCjUU6VN0CSxaXTwjQaTJiEX2o/07t3b+7tg+17aflOdi8zVp59REii6+IwUNiIlRynmAvUZhCORoGIUfffHYGMrWqRj/FzCdaxGqAVhG2LaccQFhagQSZpnkdVOvChQT9GXi3olOsH65hOprUDeigw+75W+swSWZZmvxJIlIHrfNPg4dLz0/dL427TiEiABT4I8Kz+SBDenT0fKWkO+hkmW1gsUEPI98hwyTm4yzoubCw+Eid8lXEUYiFgrrx+rv3AKuE5MOK1atYpWDr4Ki2rB2HDB11kgr8VKgJYdGI/4fblmhJHwrHmwaQ61BFy3PFbZLlAsy2ZESN6RixO3Rzoeh2txxtgTns+WJf/0hVYkhE1wdmJlG44mkyljlbHFWC0ip1GtsVAOrd55kFvFISivSeN9OGcMMY4DjyJxNhIUrmAofOL6fLFZXj4QT6d1gSt4M6g2JHFg3zoJBigxRWlHTkVRlEbGOcnARCyZ6MvBUy0tPEoDRYK0MVYpLuobzsOnuyTnrgZCUZTmglcmWhL3LwXjQK5BmvgmEYfen60Hpey5555RMk8KKwJini7FLZxDPRSUKYqiVAuv3k1AvI4+IsS1k+oOSBCzguDhk/Dm9fv27RtJJJN6LJH4IclFG3EfORmfnV4odNpMikGi4sEoch4hShJFUZRGw9tIxJD8JfnJv7GxwCAwsZL4zKPHEf10SPDRnZRiKhI3NBtr165dpJSRboqeBv12qMKmGpsEGcaA8+Dz8yhKz6woilLPBBsJRVEUpenilZNQFEVRmgdqJBRFUZRE1EgoiqIoiaiRUBRFURJRI6EoiqIkokZCURRFSUSNhKIoipKIGglFURQlETUSiqIoSiJqJBRFUZRE1EgoiqIoiaiRUBRFURJRI6EoiqIkokZCURRFSUSNhKIoipKIGglFURQlETUSiqIoSgLG/BczBxD+cwrSIQAAAABJRU5ErkJggg==;" vertex="1" parent="1">
          <mxGeometry x="-6" y="527" width="172.17" height="46" as="geometry" />
        </mxCell>
        <mxCell id="L16uUGfxBeMjkfwXHV19-20" value="Deepthread" style="points=[[0.03,0.03,0],[0.5,0,0],[0.97,0.03,0],[1,0.4,0],[0.97,0.745,0],[0.5,1,0],[0.03,0.745,0],[0,0.4,0]];verticalLabelPosition=bottom;sketch=0;html=1;verticalAlign=top;aspect=fixed;align=center;pointerEvents=1;shape=mxgraph.cisco19.workstation;fillColor=#005073;strokeColor=none;" vertex="1" parent="1">
          <mxGeometry x="369" y="588" width="50" height="40" as="geometry" />
        </mxCell>
        <mxCell id="L16uUGfxBeMjkfwXHV19-21" value="Red" style="points=[[0.13,0.02,0],[0.5,0,0],[0.87,0.02,0],[0.885,0.4,0],[0.985,0.985,0],[0.5,1,0],[0.015,0.985,0],[0.115,0.4,0]];verticalLabelPosition=bottom;sketch=0;html=1;verticalAlign=top;aspect=fixed;align=center;pointerEvents=1;shape=mxgraph.cisco19.laptop;fillColor=#005073;strokeColor=none;" vertex="1" parent="1">
          <mxGeometry x="68" y="590.5" width="50" height="35" as="geometry" />
        </mxCell>
        <mxCell id="L16uUGfxBeMjkfwXHV19-22" value="iPadMini" style="sketch=0;points=[[0.015,0.015,0],[0.985,0.015,0],[0.985,0.985,0],[0.015,0.985,0],[0.25,0,0],[0.5,0,0],[0.75,0,0],[1,0.25,0],[1,0.5,0],[1,0.75,0],[0.75,1,0],[0.5,1,0],[0.25,1,0],[0,0.75,0],[0,0.5,0],[0,0.25,0]];verticalLabelPosition=bottom;html=1;verticalAlign=top;aspect=fixed;align=center;pointerEvents=1;shape=mxgraph.cisco19.handheld;fillColor=#005073;strokeColor=none;" vertex="1" parent="1">
          <mxGeometry x="147" y="583" width="37.5" height="50" as="geometry" />
        </mxCell>
        <mxCell id="L16uUGfxBeMjkfwXHV19-23" value="Iph16" style="sketch=0;points=[[0.015,0.015,0],[0.985,0.015,0],[0.985,0.985,0],[0.015,0.985,0],[0.25,0,0],[0.5,0,0],[0.75,0,0],[1,0.25,0],[1,0.5,0],[1,0.75,0],[0.75,1,0],[0.5,1,0],[0.25,1,0],[0,0.75,0],[0,0.5,0],[0,0.25,0]];verticalLabelPosition=bottom;html=1;verticalAlign=top;aspect=fixed;align=center;pointerEvents=1;shape=mxgraph.cisco19.cell_phone;fillColor=#005073;strokeColor=none;" vertex="1" parent="1">
          <mxGeometry x="226" y="583" width="25" height="50" as="geometry" />
        </mxCell>
        <mxCell id="L16uUGfxBeMjkfwXHV19-24" value="NAS" style="sketch=0;points=[[0.015,0.015,0],[0.985,0.015,0],[0.985,0.985,0],[0.015,0.985,0],[0.25,0,0],[0.5,0,0],[0.75,0,0],[1,0.25,0],[1,0.5,0],[1,0.75,0],[0.75,1,0],[0.5,1,0],[0.25,1,0],[0,0.75,0],[0,0.5,0],[0,0.25,0]];verticalLabelPosition=bottom;html=1;verticalAlign=top;aspect=fixed;align=center;pointerEvents=1;shape=mxgraph.cisco19.rect;prIcon=storage;fillColor=#FAFAFA;strokeColor=#005073;" vertex="1" parent="1">
          <mxGeometry x="279" y="583" width="64" height="50" as="geometry" />
        </mxCell>
        <mxCell id="L16uUGfxBeMjkfwXHV19-25" value="Minis3" style="sketch=0;points=[[0.015,0.015,0],[0.985,0.015,0],[0.985,0.985,0],[0.015,0.985,0],[0.25,0,0],[0.5,0,0],[0.75,0,0],[1,0.25,0],[1,0.5,0],[1,0.75,0],[0.75,1,0],[0.5,1,0],[0.25,1,0],[0,0.75,0],[0,0.5,0],[0,0.25,0]];verticalLabelPosition=bottom;html=1;verticalAlign=top;aspect=fixed;align=center;pointerEvents=1;shape=mxgraph.cisco19.server;fillColor=#005073;strokeColor=none;" vertex="1" parent="1">
          <mxGeometry x="606" y="582" width="27.500000000000004" height="50" as="geometry" />
        </mxCell>
        <mxCell id="L16uUGfxBeMjkfwXHV19-26" value="Minis4" style="sketch=0;points=[[0.015,0.015,0],[0.985,0.015,0],[0.985,0.985,0],[0.015,0.985,0],[0.25,0,0],[0.5,0,0],[0.75,0,0],[1,0.25,0],[1,0.5,0],[1,0.75,0],[0.75,1,0],[0.5,1,0],[0.25,1,0],[0,0.75,0],[0,0.5,0],[0,0.25,0]];verticalLabelPosition=bottom;html=1;verticalAlign=top;aspect=fixed;align=center;pointerEvents=1;shape=mxgraph.cisco19.server;fillColor=#005073;strokeColor=none;" vertex="1" parent="1">
          <mxGeometry x="679" y="582" width="27.500000000000004" height="50" as="geometry" />
        </mxCell>
        <mxCell id="L16uUGfxBeMjkfwXHV19-27" value="Minis2" style="sketch=0;points=[[0.015,0.015,0],[0.985,0.015,0],[0.985,0.985,0],[0.015,0.985,0],[0.25,0,0],[0.5,0,0],[0.75,0,0],[1,0.25,0],[1,0.5,0],[1,0.75,0],[0.75,1,0],[0.5,1,0],[0.25,1,0],[0,0.75,0],[0,0.5,0],[0,0.25,0]];verticalLabelPosition=bottom;html=1;verticalAlign=top;aspect=fixed;align=center;pointerEvents=1;shape=mxgraph.cisco19.server;fillColor=#005073;strokeColor=none;" vertex="1" parent="1">
          <mxGeometry x="534" y="582" width="27.500000000000004" height="50" as="geometry" />
        </mxCell>
        <mxCell id="L16uUGfxBeMjkfwXHV19-28" value="Minis1" style="sketch=0;points=[[0.015,0.015,0],[0.985,0.015,0],[0.985,0.985,0],[0.015,0.985,0],[0.25,0,0],[0.5,0,0],[0.75,0,0],[1,0.25,0],[1,0.5,0],[1,0.75,0],[0.75,1,0],[0.5,1,0],[0.25,1,0],[0,0.75,0],[0,0.5,0],[0,0.25,0]];verticalLabelPosition=bottom;html=1;verticalAlign=top;aspect=fixed;align=center;pointerEvents=1;shape=mxgraph.cisco19.server;fillColor=#005073;strokeColor=none;" vertex="1" parent="1">
          <mxGeometry x="461" y="582" width="27.500000000000004" height="50" as="geometry" />
        </mxCell>
        <mxCell id="L16uUGfxBeMjkfwXHV19-29" value="" style="shape=image;verticalLabelPosition=bottom;labelBackgroundColor=default;verticalAlign=top;aspect=fixed;imageAspect=0;image=data:image/png,iVBORw0KGgoAAAANSUhEUgAAAFIAAABdCAYAAAA2ejFOAAAAAXNSR0IArs4c6QAAAARnQU1BAACxjwv8YQUAAAAJcEhZcwAADsMAAA7DAcdvqGQAAAncSURBVHhe7ZxHyBe7GodjO+qxd8UugoqiqFgQFXtBxbKxV7Ah6Mr9XYm4sYAcG2IBOxYUF4Jd1I1dsHvs3WPv5d7zhMxFP/8zeZPJ2dybB4ZvMt/MJO9vkkzeN5l/sX//jYrkprj5G8lJFDIQUchARCEDEYUMRBQyEFHIQEQhAxGFDEQUMhBRyEBEIQPhHLT4+PGj+vDhg/r8+bNOlypVSpUtW1ZvoXj37p369OmT+vLli06HzuP79+/aBmz5+vWrKlasmM6jXLly6rfffjNnuSEW8vXr1+rVq1fq5cuXuiBFqVy5sqpUqZL+68uLFy90Hm/evPklj5IlS6oKFSroPNh84J6JDdhTFPLg3lWqVNGiuiAS8tmzZ+rRo0fq27dv5kg6tWvXVrVq1TIpGRThyZMn6unTp9Y8qDk1a9ZU1atXN0dkICI2kIcN8qhTp44WVIq1j3z+/Ll6/PixSETgXDYXME76oGjuDx8+1OWS4iIikAfn00KkZAr5/v17XVPoR6RQuxCyUNMpBM1YamACwnAN/ZwEmrJrHrwDuCZ5F9jIFJL+RHqjH0FMCi+B81weVAIvI0mNoSzY4QMPSmpHppDSWlUIrrU9BP7v0nyKgkC27gAx8tjx9u1bs5dNqpAMDdh8wUDb9RgpeNelwoOgZmaRxwZIhkg2UoUsOvzwwVZbQuRhu4dPt/EjvHgkDztVSAapebHd438lD0gVskSJEnqAmgfGY1nkvT8GUs4sbGWwUaZMGVW8eOarRJN6Bq7S77//blLu4M7Zruec0qVLm5Q7eB8YmgVlyCMmZcwlJFSsWNHsuYOrZWsS1CYX76EoEneUCuHrUoJUg0whKYCP70xNkV6HkPjQrnB/6UPgPJ+aX7VqVbEdmULSh9WoUcPJUJoSvrC04NQY/GaXyE758uVVtWrVRE0OKBP+v4uYCIgdUkRBC1xFAhe2wTPNAFF8ahihM1wymxdCLXEVPoF7kwd5ZcFDogK5CC8OozFew12iEAibDHSTlxLiIWSeNzFjNnxvvAk20vSzvCzoLsiDLU8eDOLxdMgHGxLviwfDxv19ujPnwC4kg2AuxVBpE3MFISHvECaNxGHAhmTzxUvIyK/8M1Xp/5AoZCCikIGIQgYiChmIKGQgnIY/TGqdOXNGXbhwQd27d0+PJ5m2bNmypWrbtq1q0KCBOdMfJtuOHTumLl++rPcZo5JH8+bNVbdu3bwGy0W5du2aOnv2rLpy5Yq2iQF+w4YNVevWrVW7du3+2QH5tm3b1MaNG9WRI0fMkZ9p3769GjlypBo9erQ1tJXG6tWr1fr169XFixfNkZ/p1KmTGjdunBo1apQ54gZTuNiwZcsWdenSJXP0ZwYMGKDGjBmjBg4caI7IsAqJC7Vw4UK1ePHi/3oaWUybNk3NmTPHyeGndv/xxx9q1apV1qkD3NCpU6eqGTNmONWcGzduqCVLlqgNGzaYI+kQLcKGWbNmmSN2Svzrb8x+QZYuXarmz59vNTDh1KlT+m/Pnj31XwmLFi3SQkoaB5NdJ06c0CG+zp07m6PZ4FfPmzdP10YJ+ODkQeCiTZs25mg2mS+bAwcOqJUrV5qUnOXLl6utW7eaVDY7d+5Ua9euNSk569atU4cOHTKpbDZv3iwWMYEHhu1JxbCRKeS+ffv00g1XCAbs3bvXpLLZsWOH17zznTt31J49e0wqHcqya9cuk3KDfpTKJCFVSGKPx48fNyl3uDatQ084f/68OnjwoEm5Q42kf82CEcDJkydNyh2auIRUIQnk2oTI4q+//lL37983qcKwGEq6fqcQt2/f1uXM4tatW2bPDx6CZLVFZo3Mi+0evmtyfsR2D+nanTQYqUi0SBXSNl8swbb61fZ/CbZoeZ7pXqCMkoBvqpCNGzfO7UU0adLE7BWmfv36Zs8PDLTdw1YGG+hQr149k0onVUgmmXr16mVS7nTt2lU1bdrUpAqDkdKxYCEGDRpkdUtxLVu0aGFS7uCWSkgVEvr06WP23OnXr591pg8PYsiQISblzuDBg81eOghNWXygxks1yBSyf//+asKECSYlBwOpLRKGDRumN1cmTpwofghDhw7VLcSV2bNnq969e5tUNpkuIh01zYIICZESCT169FBz585VzZo1M0eyYZqV6A5DGQbZEnhI+MLSRf+cRx7Xr1/XQy4J48eP13ZIAzBWXxufFlG4IYamTa6z+oGozMyZM3UoyoW6deuqVq1a6ZAZIbo0n5s5ZwIWiGjrf4vSqFEjvbFe8urVq6l5cA55EHwJvtIi4ejRo+rw4cPa/yQuSSADAYhFUhP79u1rzvQHTwe3DM/owYMHehhGP9elSxd9f0Jpedm9e7e2A8+Klsa8OTZ07NhR29GhQwdzppw4rx2IzJdNRE4UMhBRyEBEIQMRhQxEFDIQUchAOI0jmRDCs2FLVuzi8RCcwNXzWY5cFCbvGZCfPn1au3N4O4TK8JYIIOQNvQErjol6YwM2EZzADlYe46H5xElFQuJWESVmS5sawC8nfkn4zacgiMbigE2bNqm7d++aoz+Dq4obSiDF59MVhGMKhKh6suS5KFQIolJsLiuRrUIyC8dMom1uJIECECBwWa7M5P2CBQvU9u3bzZFsJk2apAMKLr4wFQA7pDOW3Bs7pFglZ/2NVESg1lJg6ceU1JJly5aJRYQ1a9bouXMp1D7scJn25Xw2KZlC0gRcbpZA85EWmgUCCOPKihUr9Ly7BCbAfCbBJJ+SJGQK6TNxnyCZIaS5IaQP1GSiODaYBfSdraRVSTVIFZK+kTUzvlAA20fp9I379+83KXcQ0rYSBMF5S/si1SBVSPoVyeqzLGyT/zdv3jR7ftDs/vzzT5MqjO1h2uB6iQ6pQjoML1Ox3SPv1/1gG6JIV9GlwfUSLVJL4TKGSsN2D98FqT9iWyAQYqGD5B6plnJxnpUQiGi73mUcWAjWL/IBZhZ5P7/D28klJAXAXfJF4jKyXFo6AV+I7t2768mqLPK6rlwvIbPtMWvn28QlX+3j4w4fPtyk3MAdlSwQoDb5Lr2hRQX5BQEKYGs6hcDfxlWUwOL6sWPHmpQcrpEICdjh45tju7RVWqubpB/6EQSk75PWZGol88gjRowwR+zga0+ePNmk7FCzWCTg8tsW2ODyi4Ci6A+Dcz6twPVLG5fRp1ITfaM/3B+3j09E0tw5FhJMmTJFTZ8+3Wu5HmVPfgkBmwpBf0rFwQ4eshSneCQDbAbB/E0ERTQy5+0m7ZizOHfunF6uzOQ9S2Xo44jC8HUBLyZWl+WFWGTyKwg4HgiGHZSfzechOQkZScfvlRz5hShkIKKQgYhCBiIKGYgoZCCikIGIQgYiChmIKGQgopCBiEIGQan/AEWRzSi+muIUAAAAAElFTkSuQmCC;" vertex="1" parent="1">
          <mxGeometry x="49" y="349" width="24.16" height="27.4" as="geometry" />
        </mxCell>
        <mxCell id="L16uUGfxBeMjkfwXHV19-30" value="" style="shape=image;verticalLabelPosition=bottom;labelBackgroundColor=default;verticalAlign=top;aspect=fixed;imageAspect=0;image=data:image/png,iVBORw0KGgoAAAANSUhEUgAAAFIAAABdCAYAAAA2ejFOAAAAAXNSR0IArs4c6QAAAARnQU1BAACxjwv8YQUAAAAJcEhZcwAADsMAAA7DAcdvqGQAAAncSURBVHhe7ZxHyBe7GodjO+qxd8UugoqiqFgQFXtBxbKxV7Ah6Mr9XYm4sYAcG2IBOxYUF4Jd1I1dsHvs3WPv5d7zhMxFP/8zeZPJ2dybB4ZvMt/MJO9vkkzeN5l/sX//jYrkprj5G8lJFDIQUchARCEDEYUMRBQyEFHIQEQhAxGFDEQUMhBRyEBEIQPhHLT4+PGj+vDhg/r8+bNOlypVSpUtW1ZvoXj37p369OmT+vLli06HzuP79+/aBmz5+vWrKlasmM6jXLly6rfffjNnuSEW8vXr1+rVq1fq5cuXuiBFqVy5sqpUqZL+68uLFy90Hm/evPklj5IlS6oKFSroPNh84J6JDdhTFPLg3lWqVNGiuiAS8tmzZ+rRo0fq27dv5kg6tWvXVrVq1TIpGRThyZMn6unTp9Y8qDk1a9ZU1atXN0dkICI2kIcN8qhTp44WVIq1j3z+/Ll6/PixSETgXDYXME76oGjuDx8+1OWS4iIikAfn00KkZAr5/v17XVPoR6RQuxCyUNMpBM1YamACwnAN/ZwEmrJrHrwDuCZ5F9jIFJL+RHqjH0FMCi+B81weVAIvI0mNoSzY4QMPSmpHppDSWlUIrrU9BP7v0nyKgkC27gAx8tjx9u1bs5dNqpAMDdh8wUDb9RgpeNelwoOgZmaRxwZIhkg2UoUsOvzwwVZbQuRhu4dPt/EjvHgkDztVSAapebHd438lD0gVskSJEnqAmgfGY1nkvT8GUs4sbGWwUaZMGVW8eOarRJN6Bq7S77//blLu4M7Zruec0qVLm5Q7eB8YmgVlyCMmZcwlJFSsWNHsuYOrZWsS1CYX76EoEneUCuHrUoJUg0whKYCP70xNkV6HkPjQrnB/6UPgPJ+aX7VqVbEdmULSh9WoUcPJUJoSvrC04NQY/GaXyE758uVVtWrVRE0OKBP+v4uYCIgdUkRBC1xFAhe2wTPNAFF8ahihM1wymxdCLXEVPoF7kwd5ZcFDogK5CC8OozFew12iEAibDHSTlxLiIWSeNzFjNnxvvAk20vSzvCzoLsiDLU8eDOLxdMgHGxLviwfDxv19ujPnwC4kg2AuxVBpE3MFISHvECaNxGHAhmTzxUvIyK/8M1Xp/5AoZCCikIGIQgYiChmIKGQgnIY/TGqdOXNGXbhwQd27d0+PJ5m2bNmypWrbtq1q0KCBOdMfJtuOHTumLl++rPcZo5JH8+bNVbdu3bwGy0W5du2aOnv2rLpy5Yq2iQF+w4YNVevWrVW7du3+2QH5tm3b1MaNG9WRI0fMkZ9p3769GjlypBo9erQ1tJXG6tWr1fr169XFixfNkZ/p1KmTGjdunBo1apQ54gZTuNiwZcsWdenSJXP0ZwYMGKDGjBmjBg4caI7IsAqJC7Vw4UK1ePHi/3oaWUybNk3NmTPHyeGndv/xxx9q1apV1qkD3NCpU6eqGTNmONWcGzduqCVLlqgNGzaYI+kQLcKGWbNmmSN2Svzrb8x+QZYuXarmz59vNTDh1KlT+m/Pnj31XwmLFi3SQkoaB5NdJ06c0CG+zp07m6PZ4FfPmzdP10YJ+ODkQeCiTZs25mg2mS+bAwcOqJUrV5qUnOXLl6utW7eaVDY7d+5Ua9euNSk569atU4cOHTKpbDZv3iwWMYEHhu1JxbCRKeS+ffv00g1XCAbs3bvXpLLZsWOH17zznTt31J49e0wqHcqya9cuk3KDfpTKJCFVSGKPx48fNyl3uDatQ084f/68OnjwoEm5Q42kf82CEcDJkydNyh2auIRUIQnk2oTI4q+//lL37983qcKwGEq6fqcQt2/f1uXM4tatW2bPDx6CZLVFZo3Mi+0evmtyfsR2D+nanTQYqUi0SBXSNl8swbb61fZ/CbZoeZ7pXqCMkoBvqpCNGzfO7UU0adLE7BWmfv36Zs8PDLTdw1YGG+hQr149k0onVUgmmXr16mVS7nTt2lU1bdrUpAqDkdKxYCEGDRpkdUtxLVu0aGFS7uCWSkgVEvr06WP23OnXr591pg8PYsiQISblzuDBg81eOghNWXygxks1yBSyf//+asKECSYlBwOpLRKGDRumN1cmTpwofghDhw7VLcSV2bNnq969e5tUNpkuIh01zYIICZESCT169FBz585VzZo1M0eyYZqV6A5DGQbZEnhI+MLSRf+cRx7Xr1/XQy4J48eP13ZIAzBWXxufFlG4IYamTa6z+oGozMyZM3UoyoW6deuqVq1a6ZAZIbo0n5s5ZwIWiGjrf4vSqFEjvbFe8urVq6l5cA55EHwJvtIi4ejRo+rw4cPa/yQuSSADAYhFUhP79u1rzvQHTwe3DM/owYMHehhGP9elSxd9f0Jpedm9e7e2A8+Klsa8OTZ07NhR29GhQwdzppw4rx2IzJdNRE4UMhBRyEBEIQMRhQxEFDIQUchAOI0jmRDCs2FLVuzi8RCcwNXzWY5cFCbvGZCfPn1au3N4O4TK8JYIIOQNvQErjol6YwM2EZzADlYe46H5xElFQuJWESVmS5sawC8nfkn4zacgiMbigE2bNqm7d++aoz+Dq4obSiDF59MVhGMKhKh6suS5KFQIolJsLiuRrUIyC8dMom1uJIECECBwWa7M5P2CBQvU9u3bzZFsJk2apAMKLr4wFQA7pDOW3Bs7pFglZ/2NVESg1lJg6ceU1JJly5aJRYQ1a9bouXMp1D7scJn25Xw2KZlC0gRcbpZA85EWmgUCCOPKihUr9Ly7BCbAfCbBJJ+SJGQK6TNxnyCZIaS5IaQP1GSiODaYBfSdraRVSTVIFZK+kTUzvlAA20fp9I379+83KXcQ0rYSBMF5S/si1SBVSPoVyeqzLGyT/zdv3jR7ftDs/vzzT5MqjO1h2uB6iQ6pQjoML1Ox3SPv1/1gG6JIV9GlwfUSLVJL4TKGSsN2D98FqT9iWyAQYqGD5B6plnJxnpUQiGi73mUcWAjWL/IBZhZ5P7/D28klJAXAXfJF4jKyXFo6AV+I7t2768mqLPK6rlwvIbPtMWvn28QlX+3j4w4fPtyk3MAdlSwQoDb5Lr2hRQX5BQEKYGs6hcDfxlWUwOL6sWPHmpQcrpEICdjh45tju7RVWqubpB/6EQSk75PWZGol88gjRowwR+zga0+ePNmk7FCzWCTg8tsW2ODyi4Ci6A+Dcz6twPVLG5fRp1ITfaM/3B+3j09E0tw5FhJMmTJFTZ8+3Wu5HmVPfgkBmwpBf0rFwQ4eshSneCQDbAbB/E0ERTQy5+0m7ZizOHfunF6uzOQ9S2Xo44jC8HUBLyZWl+WFWGTyKwg4HgiGHZSfzechOQkZScfvlRz5hShkIKKQgYhCBiIKGYgoZCCikIGIQgYiChmIKGQgopCBiEIGQan/AEWRzSi+muIUAAAAAElFTkSuQmCC;" vertex="1" parent="1">
          <mxGeometry x="82" y="129" width="24.16" height="27.4" as="geometry" />
        </mxCell>
        <mxCell id="L16uUGfxBeMjkfwXHV19-31" value="" style="shape=image;verticalLabelPosition=bottom;labelBackgroundColor=default;verticalAlign=top;aspect=fixed;imageAspect=0;image=data:image/png,iVBORw0KGgoAAAANSUhEUgAAAFIAAABdCAYAAAA2ejFOAAAAAXNSR0IArs4c6QAAAARnQU1BAACxjwv8YQUAAAAJcEhZcwAADsMAAA7DAcdvqGQAAAncSURBVHhe7ZxHyBe7GodjO+qxd8UugoqiqFgQFXtBxbKxV7Ah6Mr9XYm4sYAcG2IBOxYUF4Jd1I1dsHvs3WPv5d7zhMxFP/8zeZPJ2dybB4ZvMt/MJO9vkkzeN5l/sX//jYrkprj5G8lJFDIQUchARCEDEYUMRBQyEFHIQEQhAxGFDEQUMhBRyEBEIQPhHLT4+PGj+vDhg/r8+bNOlypVSpUtW1ZvoXj37p369OmT+vLli06HzuP79+/aBmz5+vWrKlasmM6jXLly6rfffjNnuSEW8vXr1+rVq1fq5cuXuiBFqVy5sqpUqZL+68uLFy90Hm/evPklj5IlS6oKFSroPNh84J6JDdhTFPLg3lWqVNGiuiAS8tmzZ+rRo0fq27dv5kg6tWvXVrVq1TIpGRThyZMn6unTp9Y8qDk1a9ZU1atXN0dkICI2kIcN8qhTp44WVIq1j3z+/Ll6/PixSETgXDYXME76oGjuDx8+1OWS4iIikAfn00KkZAr5/v17XVPoR6RQuxCyUNMpBM1YamACwnAN/ZwEmrJrHrwDuCZ5F9jIFJL+RHqjH0FMCi+B81weVAIvI0mNoSzY4QMPSmpHppDSWlUIrrU9BP7v0nyKgkC27gAx8tjx9u1bs5dNqpAMDdh8wUDb9RgpeNelwoOgZmaRxwZIhkg2UoUsOvzwwVZbQuRhu4dPt/EjvHgkDztVSAapebHd438lD0gVskSJEnqAmgfGY1nkvT8GUs4sbGWwUaZMGVW8eOarRJN6Bq7S77//blLu4M7Zruec0qVLm5Q7eB8YmgVlyCMmZcwlJFSsWNHsuYOrZWsS1CYX76EoEneUCuHrUoJUg0whKYCP70xNkV6HkPjQrnB/6UPgPJ+aX7VqVbEdmULSh9WoUcPJUJoSvrC04NQY/GaXyE758uVVtWrVRE0OKBP+v4uYCIgdUkRBC1xFAhe2wTPNAFF8ahihM1wymxdCLXEVPoF7kwd5ZcFDogK5CC8OozFew12iEAibDHSTlxLiIWSeNzFjNnxvvAk20vSzvCzoLsiDLU8eDOLxdMgHGxLviwfDxv19ujPnwC4kg2AuxVBpE3MFISHvECaNxGHAhmTzxUvIyK/8M1Xp/5AoZCCikIGIQgYiChmIKGQgnIY/TGqdOXNGXbhwQd27d0+PJ5m2bNmypWrbtq1q0KCBOdMfJtuOHTumLl++rPcZo5JH8+bNVbdu3bwGy0W5du2aOnv2rLpy5Yq2iQF+w4YNVevWrVW7du3+2QH5tm3b1MaNG9WRI0fMkZ9p3769GjlypBo9erQ1tJXG6tWr1fr169XFixfNkZ/p1KmTGjdunBo1apQ54gZTuNiwZcsWdenSJXP0ZwYMGKDGjBmjBg4caI7IsAqJC7Vw4UK1ePHi/3oaWUybNk3NmTPHyeGndv/xxx9q1apV1qkD3NCpU6eqGTNmONWcGzduqCVLlqgNGzaYI+kQLcKGWbNmmSN2Svzrb8x+QZYuXarmz59vNTDh1KlT+m/Pnj31XwmLFi3SQkoaB5NdJ06c0CG+zp07m6PZ4FfPmzdP10YJ+ODkQeCiTZs25mg2mS+bAwcOqJUrV5qUnOXLl6utW7eaVDY7d+5Ua9euNSk569atU4cOHTKpbDZv3iwWMYEHhu1JxbCRKeS+ffv00g1XCAbs3bvXpLLZsWOH17zznTt31J49e0wqHcqya9cuk3KDfpTKJCFVSGKPx48fNyl3uDatQ084f/68OnjwoEm5Q42kf82CEcDJkydNyh2auIRUIQnk2oTI4q+//lL37983qcKwGEq6fqcQt2/f1uXM4tatW2bPDx6CZLVFZo3Mi+0evmtyfsR2D+nanTQYqUi0SBXSNl8swbb61fZ/CbZoeZ7pXqCMkoBvqpCNGzfO7UU0adLE7BWmfv36Zs8PDLTdw1YGG+hQr149k0onVUgmmXr16mVS7nTt2lU1bdrUpAqDkdKxYCEGDRpkdUtxLVu0aGFS7uCWSkgVEvr06WP23OnXr591pg8PYsiQISblzuDBg81eOghNWXygxks1yBSyf//+asKECSYlBwOpLRKGDRumN1cmTpwofghDhw7VLcSV2bNnq969e5tUNpkuIh01zYIICZESCT169FBz585VzZo1M0eyYZqV6A5DGQbZEnhI+MLSRf+cRx7Xr1/XQy4J48eP13ZIAzBWXxufFlG4IYamTa6z+oGozMyZM3UoyoW6deuqVq1a6ZAZIbo0n5s5ZwIWiGjrf4vSqFEjvbFe8urVq6l5cA55EHwJvtIi4ejRo+rw4cPa/yQuSSADAYhFUhP79u1rzvQHTwe3DM/owYMHehhGP9elSxd9f0Jpedm9e7e2A8+Klsa8OTZ07NhR29GhQwdzppw4rx2IzJdNRE4UMhBRyEBEIQMRhQxEFDIQUchAOI0jmRDCs2FLVuzi8RCcwNXzWY5cFCbvGZCfPn1au3N4O4TK8JYIIOQNvQErjol6YwM2EZzADlYe46H5xElFQuJWESVmS5sawC8nfkn4zacgiMbigE2bNqm7d++aoz+Dq4obSiDF59MVhGMKhKh6suS5KFQIolJsLiuRrUIyC8dMom1uJIECECBwWa7M5P2CBQvU9u3bzZFsJk2apAMKLr4wFQA7pDOW3Bs7pFglZ/2NVESg1lJg6ceU1JJly5aJRYQ1a9bouXMp1D7scJn25Xw2KZlC0gRcbpZA85EWmgUCCOPKihUr9Ly7BCbAfCbBJJ+SJGQK6TNxnyCZIaS5IaQP1GSiODaYBfSdraRVSTVIFZK+kTUzvlAA20fp9I379+83KXcQ0rYSBMF5S/si1SBVSPoVyeqzLGyT/zdv3jR7ftDs/vzzT5MqjO1h2uB6iQ6pQjoML1Ox3SPv1/1gG6JIV9GlwfUSLVJL4TKGSsN2D98FqT9iWyAQYqGD5B6plnJxnpUQiGi73mUcWAjWL/IBZhZ5P7/D28klJAXAXfJF4jKyXFo6AV+I7t2768mqLPK6rlwvIbPtMWvn28QlX+3j4w4fPtyk3MAdlSwQoDb5Lr2hRQX5BQEKYGs6hcDfxlWUwOL6sWPHmpQcrpEICdjh45tju7RVWqubpB/6EQSk75PWZGol88gjRowwR+zga0+ePNmk7FCzWCTg8tsW2ODyi4Ci6A+Dcz6twPVLG5fRp1ITfaM/3B+3j09E0tw5FhJMmTJFTZ8+3Wu5HmVPfgkBmwpBf0rFwQ4eshSneCQDbAbB/E0ERTQy5+0m7ZizOHfunF6uzOQ9S2Xo44jC8HUBLyZWl+WFWGTyKwg4HgiGHZSfzechOQkZScfvlRz5hShkIKKQgYhCBiIKGYgoZCCikIGIQgYiChmIKGQgopCBiEIGQan/AEWRzSi+muIUAAAAAElFTkSuQmCC;" vertex="1" parent="1">
          <mxGeometry x="181" y="341" width="24.16" height="27.4" as="geometry" />
        </mxCell>
        <mxCell id="L16uUGfxBeMjkfwXHV19-32" value="" style="shape=image;verticalLabelPosition=bottom;labelBackgroundColor=default;verticalAlign=top;aspect=fixed;imageAspect=0;image=data:image/png,iVBORw0KGgoAAAANSUhEUgAAAFIAAABdCAYAAAA2ejFOAAAAAXNSR0IArs4c6QAAAARnQU1BAACxjwv8YQUAAAAJcEhZcwAADsMAAA7DAcdvqGQAAAncSURBVHhe7ZxHyBe7GodjO+qxd8UugoqiqFgQFXtBxbKxV7Ah6Mr9XYm4sYAcG2IBOxYUF4Jd1I1dsHvs3WPv5d7zhMxFP/8zeZPJ2dybB4ZvMt/MJO9vkkzeN5l/sX//jYrkprj5G8lJFDIQUchARCEDEYUMRBQyEFHIQEQhAxGFDEQUMhBRyEBEIQPhHLT4+PGj+vDhg/r8+bNOlypVSpUtW1ZvoXj37p369OmT+vLli06HzuP79+/aBmz5+vWrKlasmM6jXLly6rfffjNnuSEW8vXr1+rVq1fq5cuXuiBFqVy5sqpUqZL+68uLFy90Hm/evPklj5IlS6oKFSroPNh84J6JDdhTFPLg3lWqVNGiuiAS8tmzZ+rRo0fq27dv5kg6tWvXVrVq1TIpGRThyZMn6unTp9Y8qDk1a9ZU1atXN0dkICI2kIcN8qhTp44WVIq1j3z+/Ll6/PixSETgXDYXME76oGjuDx8+1OWS4iIikAfn00KkZAr5/v17XVPoR6RQuxCyUNMpBM1YamACwnAN/ZwEmrJrHrwDuCZ5F9jIFJL+RHqjH0FMCi+B81weVAIvI0mNoSzY4QMPSmpHppDSWlUIrrU9BP7v0nyKgkC27gAx8tjx9u1bs5dNqpAMDdh8wUDb9RgpeNelwoOgZmaRxwZIhkg2UoUsOvzwwVZbQuRhu4dPt/EjvHgkDztVSAapebHd438lD0gVskSJEnqAmgfGY1nkvT8GUs4sbGWwUaZMGVW8eOarRJN6Bq7S77//blLu4M7Zruec0qVLm5Q7eB8YmgVlyCMmZcwlJFSsWNHsuYOrZWsS1CYX76EoEneUCuHrUoJUg0whKYCP70xNkV6HkPjQrnB/6UPgPJ+aX7VqVbEdmULSh9WoUcPJUJoSvrC04NQY/GaXyE758uVVtWrVRE0OKBP+v4uYCIgdUkRBC1xFAhe2wTPNAFF8ahihM1wymxdCLXEVPoF7kwd5ZcFDogK5CC8OozFew12iEAibDHSTlxLiIWSeNzFjNnxvvAk20vSzvCzoLsiDLU8eDOLxdMgHGxLviwfDxv19ujPnwC4kg2AuxVBpE3MFISHvECaNxGHAhmTzxUvIyK/8M1Xp/5AoZCCikIGIQgYiChmIKGQgnIY/TGqdOXNGXbhwQd27d0+PJ5m2bNmypWrbtq1q0KCBOdMfJtuOHTumLl++rPcZo5JH8+bNVbdu3bwGy0W5du2aOnv2rLpy5Yq2iQF+w4YNVevWrVW7du3+2QH5tm3b1MaNG9WRI0fMkZ9p3769GjlypBo9erQ1tJXG6tWr1fr169XFixfNkZ/p1KmTGjdunBo1apQ54gZTuNiwZcsWdenSJXP0ZwYMGKDGjBmjBg4caI7IsAqJC7Vw4UK1ePHi/3oaWUybNk3NmTPHyeGndv/xxx9q1apV1qkD3NCpU6eqGTNmONWcGzduqCVLlqgNGzaYI+kQLcKGWbNmmSN2Svzrb8x+QZYuXarmz59vNTDh1KlT+m/Pnj31XwmLFi3SQkoaB5NdJ06c0CG+zp07m6PZ4FfPmzdP10YJ+ODkQeCiTZs25mg2mS+bAwcOqJUrV5qUnOXLl6utW7eaVDY7d+5Ua9euNSk569atU4cOHTKpbDZv3iwWMYEHhu1JxbCRKeS+ffv00g1XCAbs3bvXpLLZsWOH17zznTt31J49e0wqHcqya9cuk3KDfpTKJCFVSGKPx48fNyl3uDatQ084f/68OnjwoEm5Q42kf82CEcDJkydNyh2auIRUIQnk2oTI4q+//lL37983qcKwGEq6fqcQt2/f1uXM4tatW2bPDx6CZLVFZo3Mi+0evmtyfsR2D+nanTQYqUi0SBXSNl8swbb61fZ/CbZoeZ7pXqCMkoBvqpCNGzfO7UU0adLE7BWmfv36Zs8PDLTdw1YGG+hQr149k0onVUgmmXr16mVS7nTt2lU1bdrUpAqDkdKxYCEGDRpkdUtxLVu0aGFS7uCWSkgVEvr06WP23OnXr591pg8PYsiQISblzuDBg81eOghNWXygxks1yBSyf//+asKECSYlBwOpLRKGDRumN1cmTpwofghDhw7VLcSV2bNnq969e5tUNpkuIh01zYIICZESCT169FBz585VzZo1M0eyYZqV6A5DGQbZEnhI+MLSRf+cRx7Xr1/XQy4J48eP13ZIAzBWXxufFlG4IYamTa6z+oGozMyZM3UoyoW6deuqVq1a6ZAZIbo0n5s5ZwIWiGjrf4vSqFEjvbFe8urVq6l5cA55EHwJvtIi4ejRo+rw4cPa/yQuSSADAYhFUhP79u1rzvQHTwe3DM/owYMHehhGP9elSxd9f0Jpedm9e7e2A8+Klsa8OTZ07NhR29GhQwdzppw4rx2IzJdNRE4UMhBRyEBEIQMRhQxEFDIQUchAOI0jmRDCs2FLVuzi8RCcwNXzWY5cFCbvGZCfPn1au3N4O4TK8JYIIOQNvQErjol6YwM2EZzADlYe46H5xElFQuJWESVmS5sawC8nfkn4zacgiMbigE2bNqm7d++aoz+Dq4obSiDF59MVhGMKhKh6suS5KFQIolJsLiuRrUIyC8dMom1uJIECECBwWa7M5P2CBQvU9u3bzZFsJk2apAMKLr4wFQA7pDOW3Bs7pFglZ/2NVESg1lJg6ceU1JJly5aJRYQ1a9bouXMp1D7scJn25Xw2KZlC0gRcbpZA85EWmgUCCOPKihUr9Ly7BCbAfCbBJJ+SJGQK6TNxnyCZIaS5IaQP1GSiODaYBfSdraRVSTVIFZK+kTUzvlAA20fp9I379+83KXcQ0rYSBMF5S/si1SBVSPoVyeqzLGyT/zdv3jR7ftDs/vzzT5MqjO1h2uB6iQ6pQjoML1Ox3SPv1/1gG6JIV9GlwfUSLVJL4TKGSsN2D98FqT9iWyAQYqGD5B6plnJxnpUQiGi73mUcWAjWL/IBZhZ5P7/D28klJAXAXfJF4jKyXFo6AV+I7t2768mqLPK6rlwvIbPtMWvn28QlX+3j4w4fPtyk3MAdlSwQoDb5Lr2hRQX5BQEKYGs6hcDfxlWUwOL6sWPHmpQcrpEICdjh45tju7RVWqubpB/6EQSk75PWZGol88gjRowwR+zga0+ePNmk7FCzWCTg8tsW2ODyi4Ci6A+Dcz6twPVLG5fRp1ITfaM/3B+3j09E0tw5FhJMmTJFTZ8+3Wu5HmVPfgkBmwpBf0rFwQ4eshSneCQDbAbB/E0ERTQy5+0m7ZizOHfunF6uzOQ9S2Xo44jC8HUBLyZWl+WFWGTyKwg4HgiGHZSfzechOQkZScfvlRz5hShkIKKQgYhCBiIKGYgoZCCikIGIQgYiChmIKGQgopCBiEIGQan/AEWRzSi+muIUAAAAAElFTkSuQmCC;" vertex="1" parent="1">
          <mxGeometry x="261" y="236" width="24.16" height="27.4" as="geometry" />
        </mxCell>
        <mxCell id="L16uUGfxBeMjkfwXHV19-33" value="" style="shape=image;verticalLabelPosition=bottom;labelBackgroundColor=default;verticalAlign=top;aspect=fixed;imageAspect=0;image=data:image/png,iVBORw0KGgoAAAANSUhEUgAAAFIAAABdCAYAAAA2ejFOAAAAAXNSR0IArs4c6QAAAARnQU1BAACxjwv8YQUAAAAJcEhZcwAADsMAAA7DAcdvqGQAAAncSURBVHhe7ZxHyBe7GodjO+qxd8UugoqiqFgQFXtBxbKxV7Ah6Mr9XYm4sYAcG2IBOxYUF4Jd1I1dsHvs3WPv5d7zhMxFP/8zeZPJ2dybB4ZvMt/MJO9vkkzeN5l/sX//jYrkprj5G8lJFDIQUchARCEDEYUMRBQyEFHIQEQhAxGFDEQUMhBRyEBEIQPhHLT4+PGj+vDhg/r8+bNOlypVSpUtW1ZvoXj37p369OmT+vLli06HzuP79+/aBmz5+vWrKlasmM6jXLly6rfffjNnuSEW8vXr1+rVq1fq5cuXuiBFqVy5sqpUqZL+68uLFy90Hm/evPklj5IlS6oKFSroPNh84J6JDdhTFPLg3lWqVNGiuiAS8tmzZ+rRo0fq27dv5kg6tWvXVrVq1TIpGRThyZMn6unTp9Y8qDk1a9ZU1atXN0dkICI2kIcN8qhTp44WVIq1j3z+/Ll6/PixSETgXDYXME76oGjuDx8+1OWS4iIikAfn00KkZAr5/v17XVPoR6RQuxCyUNMpBM1YamACwnAN/ZwEmrJrHrwDuCZ5F9jIFJL+RHqjH0FMCi+B81weVAIvI0mNoSzY4QMPSmpHppDSWlUIrrU9BP7v0nyKgkC27gAx8tjx9u1bs5dNqpAMDdh8wUDb9RgpeNelwoOgZmaRxwZIhkg2UoUsOvzwwVZbQuRhu4dPt/EjvHgkDztVSAapebHd438lD0gVskSJEnqAmgfGY1nkvT8GUs4sbGWwUaZMGVW8eOarRJN6Bq7S77//blLu4M7Zruec0qVLm5Q7eB8YmgVlyCMmZcwlJFSsWNHsuYOrZWsS1CYX76EoEneUCuHrUoJUg0whKYCP70xNkV6HkPjQrnB/6UPgPJ+aX7VqVbEdmULSh9WoUcPJUJoSvrC04NQY/GaXyE758uVVtWrVRE0OKBP+v4uYCIgdUkRBC1xFAhe2wTPNAFF8ahihM1wymxdCLXEVPoF7kwd5ZcFDogK5CC8OozFew12iEAibDHSTlxLiIWSeNzFjNnxvvAk20vSzvCzoLsiDLU8eDOLxdMgHGxLviwfDxv19ujPnwC4kg2AuxVBpE3MFISHvECaNxGHAhmTzxUvIyK/8M1Xp/5AoZCCikIGIQgYiChmIKGQgnIY/TGqdOXNGXbhwQd27d0+PJ5m2bNmypWrbtq1q0KCBOdMfJtuOHTumLl++rPcZo5JH8+bNVbdu3bwGy0W5du2aOnv2rLpy5Yq2iQF+w4YNVevWrVW7du3+2QH5tm3b1MaNG9WRI0fMkZ9p3769GjlypBo9erQ1tJXG6tWr1fr169XFixfNkZ/p1KmTGjdunBo1apQ54gZTuNiwZcsWdenSJXP0ZwYMGKDGjBmjBg4caI7IsAqJC7Vw4UK1ePHi/3oaWUybNk3NmTPHyeGndv/xxx9q1apV1qkD3NCpU6eqGTNmONWcGzduqCVLlqgNGzaYI+kQLcKGWbNmmSN2Svzrb8x+QZYuXarmz59vNTDh1KlT+m/Pnj31XwmLFi3SQkoaB5NdJ06c0CG+zp07m6PZ4FfPmzdP10YJ+ODkQeCiTZs25mg2mS+bAwcOqJUrV5qUnOXLl6utW7eaVDY7d+5Ua9euNSk569atU4cOHTKpbDZv3iwWMYEHhu1JxbCRKeS+ffv00g1XCAbs3bvXpLLZsWOH17zznTt31J49e0wqHcqya9cuk3KDfpTKJCFVSGKPx48fNyl3uDatQ084f/68OnjwoEm5Q42kf82CEcDJkydNyh2auIRUIQnk2oTI4q+//lL37983qcKwGEq6fqcQt2/f1uXM4tatW2bPDx6CZLVFZo3Mi+0evmtyfsR2D+nanTQYqUi0SBXSNl8swbb61fZ/CbZoeZ7pXqCMkoBvqpCNGzfO7UU0adLE7BWmfv36Zs8PDLTdw1YGG+hQr149k0onVUgmmXr16mVS7nTt2lU1bdrUpAqDkdKxYCEGDRpkdUtxLVu0aGFS7uCWSkgVEvr06WP23OnXr591pg8PYsiQISblzuDBg81eOghNWXygxks1yBSyf//+asKECSYlBwOpLRKGDRumN1cmTpwofghDhw7VLcSV2bNnq969e5tUNpkuIh01zYIICZESCT169FBz585VzZo1M0eyYZqV6A5DGQbZEnhI+MLSRf+cRx7Xr1/XQy4J48eP13ZIAzBWXxufFlG4IYamTa6z+oGozMyZM3UoyoW6deuqVq1a6ZAZIbo0n5s5ZwIWiGjrf4vSqFEjvbFe8urVq6l5cA55EHwJvtIi4ejRo+rw4cPa/yQuSSADAYhFUhP79u1rzvQHTwe3DM/owYMHehhGP9elSxd9f0Jpedm9e7e2A8+Klsa8OTZ07NhR29GhQwdzppw4rx2IzJdNRE4UMhBRyEBEIQMRhQxEFDIQUchAOI0jmRDCs2FLVuzi8RCcwNXzWY5cFCbvGZCfPn1au3N4O4TK8JYIIOQNvQErjol6YwM2EZzADlYe46H5xElFQuJWESVmS5sawC8nfkn4zacgiMbigE2bNqm7d++aoz+Dq4obSiDF59MVhGMKhKh6suS5KFQIolJsLiuRrUIyC8dMom1uJIECECBwWa7M5P2CBQvU9u3bzZFsJk2apAMKLr4wFQA7pDOW3Bs7pFglZ/2NVESg1lJg6ceU1JJly5aJRYQ1a9bouXMp1D7scJn25Xw2KZlC0gRcbpZA85EWmgUCCOPKihUr9Ly7BCbAfCbBJJ+SJGQK6TNxnyCZIaS5IaQP1GSiODaYBfSdraRVSTVIFZK+kTUzvlAA20fp9I379+83KXcQ0rYSBMF5S/si1SBVSPoVyeqzLGyT/zdv3jR7ftDs/vzzT5MqjO1h2uB6iQ6pQjoML1Ox3SPv1/1gG6JIV9GlwfUSLVJL4TKGSsN2D98FqT9iWyAQYqGD5B6plnJxnpUQiGi73mUcWAjWL/IBZhZ5P7/D28klJAXAXfJF4jKyXFo6AV+I7t2768mqLPK6rlwvIbPtMWvn28QlX+3j4w4fPtyk3MAdlSwQoDb5Lr2hRQX5BQEKYGs6hcDfxlWUwOL6sWPHmpQcrpEICdjh45tju7RVWqubpB/6EQSk75PWZGol88gjRowwR+zga0+ePNmk7FCzWCTg8tsW2ODyi4Ci6A+Dcz6twPVLG5fRp1ITfaM/3B+3j09E0tw5FhJMmTJFTZ8+3Wu5HmVPfgkBmwpBf0rFwQ4eshSneCQDbAbB/E0ERTQy5+0m7ZizOHfunF6uzOQ9S2Xo44jC8HUBLyZWl+WFWGTyKwg4HgiGHZSfzechOQkZScfvlRz5hShkIKKQgYhCBiIKGYgoZCCikIGIQgYiChmIKGQgopCBiEIGQan/AEWRzSi+muIUAAAAAElFTkSuQmCC;" vertex="1" parent="1">
          <mxGeometry x="379" y="-112" width="24.16" height="27.4" as="geometry" />
        </mxCell>
        <mxCell id="L16uUGfxBeMjkfwXHV19-34" value="" style="shape=image;verticalLabelPosition=bottom;labelBackgroundColor=default;verticalAlign=top;aspect=fixed;imageAspect=0;image=data:image/png,iVBORw0KGgoAAAANSUhEUgAAAFIAAABdCAYAAAA2ejFOAAAAAXNSR0IArs4c6QAAAARnQU1BAACxjwv8YQUAAAAJcEhZcwAADsMAAA7DAcdvqGQAAAncSURBVHhe7ZxHyBe7GodjO+qxd8UugoqiqFgQFXtBxbKxV7Ah6Mr9XYm4sYAcG2IBOxYUF4Jd1I1dsHvs3WPv5d7zhMxFP/8zeZPJ2dybB4ZvMt/MJO9vkkzeN5l/sX//jYrkprj5G8lJFDIQUchARCEDEYUMRBQyEFHIQEQhAxGFDEQUMhBRyEBEIQPhHLT4+PGj+vDhg/r8+bNOlypVSpUtW1ZvoXj37p369OmT+vLli06HzuP79+/aBmz5+vWrKlasmM6jXLly6rfffjNnuSEW8vXr1+rVq1fq5cuXuiBFqVy5sqpUqZL+68uLFy90Hm/evPklj5IlS6oKFSroPNh84J6JDdhTFPLg3lWqVNGiuiAS8tmzZ+rRo0fq27dv5kg6tWvXVrVq1TIpGRThyZMn6unTp9Y8qDk1a9ZU1atXN0dkICI2kIcN8qhTp44WVIq1j3z+/Ll6/PixSETgXDYXME76oGjuDx8+1OWS4iIikAfn00KkZAr5/v17XVPoR6RQuxCyUNMpBM1YamACwnAN/ZwEmrJrHrwDuCZ5F9jIFJL+RHqjH0FMCi+B81weVAIvI0mNoSzY4QMPSmpHppDSWlUIrrU9BP7v0nyKgkC27gAx8tjx9u1bs5dNqpAMDdh8wUDb9RgpeNelwoOgZmaRxwZIhkg2UoUsOvzwwVZbQuRhu4dPt/EjvHgkDztVSAapebHd438lD0gVskSJEnqAmgfGY1nkvT8GUs4sbGWwUaZMGVW8eOarRJN6Bq7S77//blLu4M7Zruec0qVLm5Q7eB8YmgVlyCMmZcwlJFSsWNHsuYOrZWsS1CYX76EoEneUCuHrUoJUg0whKYCP70xNkV6HkPjQrnB/6UPgPJ+aX7VqVbEdmULSh9WoUcPJUJoSvrC04NQY/GaXyE758uVVtWrVRE0OKBP+v4uYCIgdUkRBC1xFAhe2wTPNAFF8ahihM1wymxdCLXEVPoF7kwd5ZcFDogK5CC8OozFew12iEAibDHSTlxLiIWSeNzFjNnxvvAk20vSzvCzoLsiDLU8eDOLxdMgHGxLviwfDxv19ujPnwC4kg2AuxVBpE3MFISHvECaNxGHAhmTzxUvIyK/8M1Xp/5AoZCCikIGIQgYiChmIKGQgnIY/TGqdOXNGXbhwQd27d0+PJ5m2bNmypWrbtq1q0KCBOdMfJtuOHTumLl++rPcZo5JH8+bNVbdu3bwGy0W5du2aOnv2rLpy5Yq2iQF+w4YNVevWrVW7du3+2QH5tm3b1MaNG9WRI0fMkZ9p3769GjlypBo9erQ1tJXG6tWr1fr169XFixfNkZ/p1KmTGjdunBo1apQ54gZTuNiwZcsWdenSJXP0ZwYMGKDGjBmjBg4caI7IsAqJC7Vw4UK1ePHi/3oaWUybNk3NmTPHyeGndv/xxx9q1apV1qkD3NCpU6eqGTNmONWcGzduqCVLlqgNGzaYI+kQLcKGWbNmmSN2Svzrb8x+QZYuXarmz59vNTDh1KlT+m/Pnj31XwmLFi3SQkoaB5NdJ06c0CG+zp07m6PZ4FfPmzdP10YJ+ODkQeCiTZs25mg2mS+bAwcOqJUrV5qUnOXLl6utW7eaVDY7d+5Ua9euNSk569atU4cOHTKpbDZv3iwWMYEHhu1JxbCRKeS+ffv00g1XCAbs3bvXpLLZsWOH17zznTt31J49e0wqHcqya9cuk3KDfpTKJCFVSGKPx48fNyl3uDatQ084f/68OnjwoEm5Q42kf82CEcDJkydNyh2auIRUIQnk2oTI4q+//lL37983qcKwGEq6fqcQt2/f1uXM4tatW2bPDx6CZLVFZo3Mi+0evmtyfsR2D+nanTQYqUi0SBXSNl8swbb61fZ/CbZoeZ7pXqCMkoBvqpCNGzfO7UU0adLE7BWmfv36Zs8PDLTdw1YGG+hQr149k0onVUgmmXr16mVS7nTt2lU1bdrUpAqDkdKxYCEGDRpkdUtxLVu0aGFS7uCWSkgVEvr06WP23OnXr591pg8PYsiQISblzuDBg81eOghNWXygxks1yBSyf//+asKECSYlBwOpLRKGDRumN1cmTpwofghDhw7VLcSV2bNnq969e5tUNpkuIh01zYIICZESCT169FBz585VzZo1M0eyYZqV6A5DGQbZEnhI+MLSRf+cRx7Xr1/XQy4J48eP13ZIAzBWXxufFlG4IYamTa6z+oGozMyZM3UoyoW6deuqVq1a6ZAZIbo0n5s5ZwIWiGjrf4vSqFEjvbFe8urVq6l5cA55EHwJvtIi4ejRo+rw4cPa/yQuSSADAYhFUhP79u1rzvQHTwe3DM/owYMHehhGP9elSxd9f0Jpedm9e7e2A8+Klsa8OTZ07NhR29GhQwdzppw4rx2IzJdNRE4UMhBRyEBEIQMRhQxEFDIQUchAOI0jmRDCs2FLVuzi8RCcwNXzWY5cFCbvGZCfPn1au3N4O4TK8JYIIOQNvQErjol6YwM2EZzADlYe46H5xElFQuJWESVmS5sawC8nfkn4zacgiMbigE2bNqm7d++aoz+Dq4obSiDF59MVhGMKhKh6suS5KFQIolJsLiuRrUIyC8dMom1uJIECECBwWa7M5P2CBQvU9u3bzZFsJk2apAMKLr4wFQA7pDOW3Bs7pFglZ/2NVESg1lJg6ceU1JJly5aJRYQ1a9bouXMp1D7scJn25Xw2KZlC0gRcbpZA85EWmgUCCOPKihUr9Ly7BCbAfCbBJJ+SJGQK6TNxnyCZIaS5IaQP1GSiODaYBfSdraRVSTVIFZK+kTUzvlAA20fp9I379+83KXcQ0rYSBMF5S/si1SBVSPoVyeqzLGyT/zdv3jR7ftDs/vzzT5MqjO1h2uB6iQ6pQjoML1Ox3SPv1/1gG6JIV9GlwfUSLVJL4TKGSsN2D98FqT9iWyAQYqGD5B6plnJxnpUQiGi73mUcWAjWL/IBZhZ5P7/D28klJAXAXfJF4jKyXFo6AV+I7t2768mqLPK6rlwvIbPtMWvn28QlX+3j4w4fPtyk3MAdlSwQoDb5Lr2hRQX5BQEKYGs6hcDfxlWUwOL6sWPHmpQcrpEICdjh45tju7RVWqubpB/6EQSk75PWZGol88gjRowwR+zga0+ePNmk7FCzWCTg8tsW2ODyi4Ci6A+Dcz6twPVLG5fRp1ITfaM/3B+3j09E0tw5FhJMmTJFTZ8+3Wu5HmVPfgkBmwpBf0rFwQ4eshSneCQDbAbB/E0ERTQy5+0m7ZizOHfunF6uzOQ9S2Xo44jC8HUBLyZWl+WFWGTyKwg4HgiGHZSfzechOQkZScfvlRz5hShkIKKQgYhCBiIKGYgoZCCikIGIQgYiChmIKGQgopCBiEIGQan/AEWRzSi+muIUAAAAAElFTkSuQmCC;" vertex="1" parent="1">
          <mxGeometry x="457" y="-115" width="24.16" height="27.4" as="geometry" />
        </mxCell>
        <mxCell id="L16uUGfxBeMjkfwXHV19-35" value="" style="shape=image;verticalLabelPosition=bottom;labelBackgroundColor=default;verticalAlign=top;aspect=fixed;imageAspect=0;image=data:image/png,iVBORw0KGgoAAAANSUhEUgAAAFIAAABdCAYAAAA2ejFOAAAAAXNSR0IArs4c6QAAAARnQU1BAACxjwv8YQUAAAAJcEhZcwAADsMAAA7DAcdvqGQAAAncSURBVHhe7ZxHyBe7GodjO+qxd8UugoqiqFgQFXtBxbKxV7Ah6Mr9XYm4sYAcG2IBOxYUF4Jd1I1dsHvs3WPv5d7zhMxFP/8zeZPJ2dybB4ZvMt/MJO9vkkzeN5l/sX//jYrkprj5G8lJFDIQUchARCEDEYUMRBQyEFHIQEQhAxGFDEQUMhBRyEBEIQPhHLT4+PGj+vDhg/r8+bNOlypVSpUtW1ZvoXj37p369OmT+vLli06HzuP79+/aBmz5+vWrKlasmM6jXLly6rfffjNnuSEW8vXr1+rVq1fq5cuXuiBFqVy5sqpUqZL+68uLFy90Hm/evPklj5IlS6oKFSroPNh84J6JDdhTFPLg3lWqVNGiuiAS8tmzZ+rRo0fq27dv5kg6tWvXVrVq1TIpGRThyZMn6unTp9Y8qDk1a9ZU1atXN0dkICI2kIcN8qhTp44WVIq1j3z+/Ll6/PixSETgXDYXME76oGjuDx8+1OWS4iIikAfn00KkZAr5/v17XVPoR6RQuxCyUNMpBM1YamACwnAN/ZwEmrJrHrwDuCZ5F9jIFJL+RHqjH0FMCi+B81weVAIvI0mNoSzY4QMPSmpHppDSWlUIrrU9BP7v0nyKgkC27gAx8tjx9u1bs5dNqpAMDdh8wUDb9RgpeNelwoOgZmaRxwZIhkg2UoUsOvzwwVZbQuRhu4dPt/EjvHgkDztVSAapebHd438lD0gVskSJEnqAmgfGY1nkvT8GUs4sbGWwUaZMGVW8eOarRJN6Bq7S77//blLu4M7Zruec0qVLm5Q7eB8YmgVlyCMmZcwlJFSsWNHsuYOrZWsS1CYX76EoEneUCuHrUoJUg0whKYCP70xNkV6HkPjQrnB/6UPgPJ+aX7VqVbEdmULSh9WoUcPJUJoSvrC04NQY/GaXyE758uVVtWrVRE0OKBP+v4uYCIgdUkRBC1xFAhe2wTPNAFF8ahihM1wymxdCLXEVPoF7kwd5ZcFDogK5CC8OozFew12iEAibDHSTlxLiIWSeNzFjNnxvvAk20vSzvCzoLsiDLU8eDOLxdMgHGxLviwfDxv19ujPnwC4kg2AuxVBpE3MFISHvECaNxGHAhmTzxUvIyK/8M1Xp/5AoZCCikIGIQgYiChmIKGQgnIY/TGqdOXNGXbhwQd27d0+PJ5m2bNmypWrbtq1q0KCBOdMfJtuOHTumLl++rPcZo5JH8+bNVbdu3bwGy0W5du2aOnv2rLpy5Yq2iQF+w4YNVevWrVW7du3+2QH5tm3b1MaNG9WRI0fMkZ9p3769GjlypBo9erQ1tJXG6tWr1fr169XFixfNkZ/p1KmTGjdunBo1apQ54gZTuNiwZcsWdenSJXP0ZwYMGKDGjBmjBg4caI7IsAqJC7Vw4UK1ePHi/3oaWUybNk3NmTPHyeGndv/xxx9q1apV1qkD3NCpU6eqGTNmONWcGzduqCVLlqgNGzaYI+kQLcKGWbNmmSN2Svzrb8x+QZYuXarmz59vNTDh1KlT+m/Pnj31XwmLFi3SQkoaB5NdJ06c0CG+zp07m6PZ4FfPmzdP10YJ+ODkQeCiTZs25mg2mS+bAwcOqJUrV5qUnOXLl6utW7eaVDY7d+5Ua9euNSk569atU4cOHTKpbDZv3iwWMYEHhu1JxbCRKeS+ffv00g1XCAbs3bvXpLLZsWOH17zznTt31J49e0wqHcqya9cuk3KDfpTKJCFVSGKPx48fNyl3uDatQ084f/68OnjwoEm5Q42kf82CEcDJkydNyh2auIRUIQnk2oTI4q+//lL37983qcKwGEq6fqcQt2/f1uXM4tatW2bPDx6CZLVFZo3Mi+0evmtyfsR2D+nanTQYqUi0SBXSNl8swbb61fZ/CbZoeZ7pXqCMkoBvqpCNGzfO7UU0adLE7BWmfv36Zs8PDLTdw1YGG+hQr149k0onVUgmmXr16mVS7nTt2lU1bdrUpAqDkdKxYCEGDRpkdUtxLVu0aGFS7uCWSkgVEvr06WP23OnXr591pg8PYsiQISblzuDBg81eOghNWXygxks1yBSyf//+asKECSYlBwOpLRKGDRumN1cmTpwofghDhw7VLcSV2bNnq969e5tUNpkuIh01zYIICZESCT169FBz585VzZo1M0eyYZqV6A5DGQbZEnhI+MLSRf+cRx7Xr1/XQy4J48eP13ZIAzBWXxufFlG4IYamTa6z+oGozMyZM3UoyoW6deuqVq1a6ZAZIbo0n5s5ZwIWiGjrf4vSqFEjvbFe8urVq6l5cA55EHwJvtIi4ejRo+rw4cPa/yQuSSADAYhFUhP79u1rzvQHTwe3DM/owYMHehhGP9elSxd9f0Jpedm9e7e2A8+Klsa8OTZ07NhR29GhQwdzppw4rx2IzJdNRE4UMhBRyEBEIQMRhQxEFDIQUchAOI0jmRDCs2FLVuzi8RCcwNXzWY5cFCbvGZCfPn1au3N4O4TK8JYIIOQNvQErjol6YwM2EZzADlYe46H5xElFQuJWESVmS5sawC8nfkn4zacgiMbigE2bNqm7d++aoz+Dq4obSiDF59MVhGMKhKh6suS5KFQIolJsLiuRrUIyC8dMom1uJIECECBwWa7M5P2CBQvU9u3bzZFsJk2apAMKLr4wFQA7pDOW3Bs7pFglZ/2NVESg1lJg6ceU1JJly5aJRYQ1a9bouXMp1D7scJn25Xw2KZlC0gRcbpZA85EWmgUCCOPKihUr9Ly7BCbAfCbBJJ+SJGQK6TNxnyCZIaS5IaQP1GSiODaYBfSdraRVSTVIFZK+kTUzvlAA20fp9I379+83KXcQ0rYSBMF5S/si1SBVSPoVyeqzLGyT/zdv3jR7ftDs/vzzT5MqjO1h2uB6iQ6pQjoML1Ox3SPv1/1gG6JIV9GlwfUSLVJL4TKGSsN2D98FqT9iWyAQYqGD5B6plnJxnpUQiGi73mUcWAjWL/IBZhZ5P7/D28klJAXAXfJF4jKyXFo6AV+I7t2768mqLPK6rlwvIbPtMWvn28QlX+3j4w4fPtyk3MAdlSwQoDb5Lr2hRQX5BQEKYGs6hcDfxlWUwOL6sWPHmpQcrpEICdjh45tju7RVWqubpB/6EQSk75PWZGol88gjRowwR+zga0+ePNmk7FCzWCTg8tsW2ODyi4Ci6A+Dcz6twPVLG5fRp1ITfaM/3B+3j09E0tw5FhJMmTJFTZ8+3Wu5HmVPfgkBmwpBf0rFwQ4eshSneCQDbAbB/E0ERTQy5+0m7ZizOHfunF6uzOQ9S2Xo44jC8HUBLyZWl+WFWGTyKwg4HgiGHZSfzechOQkZScfvlRz5hShkIKKQgYhCBiIKGYgoZCCikIGIQgYiChmIKGQgopCBiEIGQan/AEWRzSi+muIUAAAAAElFTkSuQmCC;" vertex="1" parent="1">
          <mxGeometry x="611" y="332" width="24.16" height="27.4" as="geometry" />
        </mxCell>
        <mxCell id="L16uUGfxBeMjkfwXHV19-36" value="" style="shape=image;verticalLabelPosition=bottom;labelBackgroundColor=default;verticalAlign=top;aspect=fixed;imageAspect=0;image=data:image/png,iVBORw0KGgoAAAANSUhEUgAAAFIAAABdCAYAAAA2ejFOAAAAAXNSR0IArs4c6QAAAARnQU1BAACxjwv8YQUAAAAJcEhZcwAADsMAAA7DAcdvqGQAAAncSURBVHhe7ZxHyBe7GodjO+qxd8UugoqiqFgQFXtBxbKxV7Ah6Mr9XYm4sYAcG2IBOxYUF4Jd1I1dsHvs3WPv5d7zhMxFP/8zeZPJ2dybB4ZvMt/MJO9vkkzeN5l/sX//jYrkprj5G8lJFDIQUchARCEDEYUMRBQyEFHIQEQhAxGFDEQUMhBRyEBEIQPhHLT4+PGj+vDhg/r8+bNOlypVSpUtW1ZvoXj37p369OmT+vLli06HzuP79+/aBmz5+vWrKlasmM6jXLly6rfffjNnuSEW8vXr1+rVq1fq5cuXuiBFqVy5sqpUqZL+68uLFy90Hm/evPklj5IlS6oKFSroPNh84J6JDdhTFPLg3lWqVNGiuiAS8tmzZ+rRo0fq27dv5kg6tWvXVrVq1TIpGRThyZMn6unTp9Y8qDk1a9ZU1atXN0dkICI2kIcN8qhTp44WVIq1j3z+/Ll6/PixSETgXDYXME76oGjuDx8+1OWS4iIikAfn00KkZAr5/v17XVPoR6RQuxCyUNMpBM1YamACwnAN/ZwEmrJrHrwDuCZ5F9jIFJL+RHqjH0FMCi+B81weVAIvI0mNoSzY4QMPSmpHppDSWlUIrrU9BP7v0nyKgkC27gAx8tjx9u1bs5dNqpAMDdh8wUDb9RgpeNelwoOgZmaRxwZIhkg2UoUsOvzwwVZbQuRhu4dPt/EjvHgkDztVSAapebHd438lD0gVskSJEnqAmgfGY1nkvT8GUs4sbGWwUaZMGVW8eOarRJN6Bq7S77//blLu4M7Zruec0qVLm5Q7eB8YmgVlyCMmZcwlJFSsWNHsuYOrZWsS1CYX76EoEneUCuHrUoJUg0whKYCP70xNkV6HkPjQrnB/6UPgPJ+aX7VqVbEdmULSh9WoUcPJUJoSvrC04NQY/GaXyE758uVVtWrVRE0OKBP+v4uYCIgdUkRBC1xFAhe2wTPNAFF8ahihM1wymxdCLXEVPoF7kwd5ZcFDogK5CC8OozFew12iEAibDHSTlxLiIWSeNzFjNnxvvAk20vSzvCzoLsiDLU8eDOLxdMgHGxLviwfDxv19ujPnwC4kg2AuxVBpE3MFISHvECaNxGHAhmTzxUvIyK/8M1Xp/5AoZCCikIGIQgYiChmIKGQgnIY/TGqdOXNGXbhwQd27d0+PJ5m2bNmypWrbtq1q0KCBOdMfJtuOHTumLl++rPcZo5JH8+bNVbdu3bwGy0W5du2aOnv2rLpy5Yq2iQF+w4YNVevWrVW7du3+2QH5tm3b1MaNG9WRI0fMkZ9p3769GjlypBo9erQ1tJXG6tWr1fr169XFixfNkZ/p1KmTGjdunBo1apQ54gZTuNiwZcsWdenSJXP0ZwYMGKDGjBmjBg4caI7IsAqJC7Vw4UK1ePHi/3oaWUybNk3NmTPHyeGndv/xxx9q1apV1qkD3NCpU6eqGTNmONWcGzduqCVLlqgNGzaYI+kQLcKGWbNmmSN2Svzrb8x+QZYuXarmz59vNTDh1KlT+m/Pnj31XwmLFi3SQkoaB5NdJ06c0CG+zp07m6PZ4FfPmzdP10YJ+ODkQeCiTZs25mg2mS+bAwcOqJUrV5qUnOXLl6utW7eaVDY7d+5Ua9euNSk569atU4cOHTKpbDZv3iwWMYEHhu1JxbCRKeS+ffv00g1XCAbs3bvXpLLZsWOH17zznTt31J49e0wqHcqya9cuk3KDfpTKJCFVSGKPx48fNyl3uDatQ084f/68OnjwoEm5Q42kf82CEcDJkydNyh2auIRUIQnk2oTI4q+//lL37983qcKwGEq6fqcQt2/f1uXM4tatW2bPDx6CZLVFZo3Mi+0evmtyfsR2D+nanTQYqUi0SBXSNl8swbb61fZ/CbZoeZ7pXqCMkoBvqpCNGzfO7UU0adLE7BWmfv36Zs8PDLTdw1YGG+hQr149k0onVUgmmXr16mVS7nTt2lU1bdrUpAqDkdKxYCEGDRpkdUtxLVu0aGFS7uCWSkgVEvr06WP23OnXr591pg8PYsiQISblzuDBg81eOghNWXygxks1yBSyf//+asKECSYlBwOpLRKGDRumN1cmTpwofghDhw7VLcSV2bNnq969e5tUNpkuIh01zYIICZESCT169FBz585VzZo1M0eyYZqV6A5DGQbZEnhI+MLSRf+cRx7Xr1/XQy4J48eP13ZIAzBWXxufFlG4IYamTa6z+oGozMyZM3UoyoW6deuqVq1a6ZAZIbo0n5s5ZwIWiGjrf4vSqFEjvbFe8urVq6l5cA55EHwJvtIi4ejRo+rw4cPa/yQuSSADAYhFUhP79u1rzvQHTwe3DM/owYMHehhGP9elSxd9f0Jpedm9e7e2A8+Klsa8OTZ07NhR29GhQwdzppw4rx2IzJdNRE4UMhBRyEBEIQMRhQxEFDIQUchAOI0jmRDCs2FLVuzi8RCcwNXzWY5cFCbvGZCfPn1au3N4O4TK8JYIIOQNvQErjol6YwM2EZzADlYe46H5xElFQuJWESVmS5sawC8nfkn4zacgiMbigE2bNqm7d++aoz+Dq4obSiDF59MVhGMKhKh6suS5KFQIolJsLiuRrUIyC8dMom1uJIECECBwWa7M5P2CBQvU9u3bzZFsJk2apAMKLr4wFQA7pDOW3Bs7pFglZ/2NVESg1lJg6ceU1JJly5aJRYQ1a9bouXMp1D7scJn25Xw2KZlC0gRcbpZA85EWmgUCCOPKihUr9Ly7BCbAfCbBJJ+SJGQK6TNxnyCZIaS5IaQP1GSiODaYBfSdraRVSTVIFZK+kTUzvlAA20fp9I379+83KXcQ0rYSBMF5S/si1SBVSPoVyeqzLGyT/zdv3jR7ftDs/vzzT5MqjO1h2uB6iQ6pQjoML1Ox3SPv1/1gG6JIV9GlwfUSLVJL4TKGSsN2D98FqT9iWyAQYqGD5B6plnJxnpUQiGi73mUcWAjWL/IBZhZ5P7/D28klJAXAXfJF4jKyXFo6AV+I7t2768mqLPK6rlwvIbPtMWvn28QlX+3j4w4fPtyk3MAdlSwQoDb5Lr2hRQX5BQEKYGs6hcDfxlWUwOL6sWPHmpQcrpEICdjh45tju7RVWqubpB/6EQSk75PWZGol88gjRowwR+zga0+ePNmk7FCzWCTg8tsW2ODyi4Ci6A+Dcz6twPVLG5fRp1ITfaM/3B+3j09E0tw5FhJMmTJFTZ8+3Wu5HmVPfgkBmwpBf0rFwQ4eshSneCQDbAbB/E0ERTQy5+0m7ZizOHfunF6uzOQ9S2Xo44jC8HUBLyZWl+WFWGTyKwg4HgiGHZSfzechOQkZScfvlRz5hShkIKKQgYhCBiIKGYgoZCCikIGIQgYiChmIKGQgopCBiEIGQan/AEWRzSi+muIUAAAAAElFTkSuQmCC;" vertex="1" parent="1">
          <mxGeometry x="664" y="335" width="24.16" height="27.4" as="geometry" />
        </mxCell>
        <mxCell id="L16uUGfxBeMjkfwXHV19-37" value="" style="shape=image;verticalLabelPosition=bottom;labelBackgroundColor=default;verticalAlign=top;aspect=fixed;imageAspect=0;image=data:image/png,iVBORw0KGgoAAAANSUhEUgAAAFIAAABdCAYAAAA2ejFOAAAAAXNSR0IArs4c6QAAAARnQU1BAACxjwv8YQUAAAAJcEhZcwAADsMAAA7DAcdvqGQAAAncSURBVHhe7ZxHyBe7GodjO+qxd8UugoqiqFgQFXtBxbKxV7Ah6Mr9XYm4sYAcG2IBOxYUF4Jd1I1dsHvs3WPv5d7zhMxFP/8zeZPJ2dybB4ZvMt/MJO9vkkzeN5l/sX//jYrkprj5G8lJFDIQUchARCEDEYUMRBQyEFHIQEQhAxGFDEQUMhBRyEBEIQPhHLT4+PGj+vDhg/r8+bNOlypVSpUtW1ZvoXj37p369OmT+vLli06HzuP79+/aBmz5+vWrKlasmM6jXLly6rfffjNnuSEW8vXr1+rVq1fq5cuXuiBFqVy5sqpUqZL+68uLFy90Hm/evPklj5IlS6oKFSroPNh84J6JDdhTFPLg3lWqVNGiuiAS8tmzZ+rRo0fq27dv5kg6tWvXVrVq1TIpGRThyZMn6unTp9Y8qDk1a9ZU1atXN0dkICI2kIcN8qhTp44WVIq1j3z+/Ll6/PixSETgXDYXME76oGjuDx8+1OWS4iIikAfn00KkZAr5/v17XVPoR6RQuxCyUNMpBM1YamACwnAN/ZwEmrJrHrwDuCZ5F9jIFJL+RHqjH0FMCi+B81weVAIvI0mNoSzY4QMPSmpHppDSWlUIrrU9BP7v0nyKgkC27gAx8tjx9u1bs5dNqpAMDdh8wUDb9RgpeNelwoOgZmaRxwZIhkg2UoUsOvzwwVZbQuRhu4dPt/EjvHgkDztVSAapebHd438lD0gVskSJEnqAmgfGY1nkvT8GUs4sbGWwUaZMGVW8eOarRJN6Bq7S77//blLu4M7Zruec0qVLm5Q7eB8YmgVlyCMmZcwlJFSsWNHsuYOrZWsS1CYX76EoEneUCuHrUoJUg0whKYCP70xNkV6HkPjQrnB/6UPgPJ+aX7VqVbEdmULSh9WoUcPJUJoSvrC04NQY/GaXyE758uVVtWrVRE0OKBP+v4uYCIgdUkRBC1xFAhe2wTPNAFF8ahihM1wymxdCLXEVPoF7kwd5ZcFDogK5CC8OozFew12iEAibDHSTlxLiIWSeNzFjNnxvvAk20vSzvCzoLsiDLU8eDOLxdMgHGxLviwfDxv19ujPnwC4kg2AuxVBpE3MFISHvECaNxGHAhmTzxUvIyK/8M1Xp/5AoZCCikIGIQgYiChmIKGQgnIY/TGqdOXNGXbhwQd27d0+PJ5m2bNmypWrbtq1q0KCBOdMfJtuOHTumLl++rPcZo5JH8+bNVbdu3bwGy0W5du2aOnv2rLpy5Yq2iQF+w4YNVevWrVW7du3+2QH5tm3b1MaNG9WRI0fMkZ9p3769GjlypBo9erQ1tJXG6tWr1fr169XFixfNkZ/p1KmTGjdunBo1apQ54gZTuNiwZcsWdenSJXP0ZwYMGKDGjBmjBg4caI7IsAqJC7Vw4UK1ePHi/3oaWUybNk3NmTPHyeGndv/xxx9q1apV1qkD3NCpU6eqGTNmONWcGzduqCVLlqgNGzaYI+kQLcKGWbNmmSN2Svzrb8x+QZYuXarmz59vNTDh1KlT+m/Pnj31XwmLFi3SQkoaB5NdJ06c0CG+zp07m6PZ4FfPmzdP10YJ+ODkQeCiTZs25mg2mS+bAwcOqJUrV5qUnOXLl6utW7eaVDY7d+5Ua9euNSk569atU4cOHTKpbDZv3iwWMYEHhu1JxbCRKeS+ffv00g1XCAbs3bvXpLLZsWOH17zznTt31J49e0wqHcqya9cuk3KDfpTKJCFVSGKPx48fNyl3uDatQ084f/68OnjwoEm5Q42kf82CEcDJkydNyh2auIRUIQnk2oTI4q+//lL37983qcKwGEq6fqcQt2/f1uXM4tatW2bPDx6CZLVFZo3Mi+0evmtyfsR2D+nanTQYqUi0SBXSNl8swbb61fZ/CbZoeZ7pXqCMkoBvqpCNGzfO7UU0adLE7BWmfv36Zs8PDLTdw1YGG+hQr149k0onVUgmmXr16mVS7nTt2lU1bdrUpAqDkdKxYCEGDRpkdUtxLVu0aGFS7uCWSkgVEvr06WP23OnXr591pg8PYsiQISblzuDBg81eOghNWXygxks1yBSyf//+asKECSYlBwOpLRKGDRumN1cmTpwofghDhw7VLcSV2bNnq969e5tUNpkuIh01zYIICZESCT169FBz585VzZo1M0eyYZqV6A5DGQbZEnhI+MLSRf+cRx7Xr1/XQy4J48eP13ZIAzBWXxufFlG4IYamTa6z+oGozMyZM3UoyoW6deuqVq1a6ZAZIbo0n5s5ZwIWiGjrf4vSqFEjvbFe8urVq6l5cA55EHwJvtIi4ejRo+rw4cPa/yQuSSADAYhFUhP79u1rzvQHTwe3DM/owYMHehhGP9elSxd9f0Jpedm9e7e2A8+Klsa8OTZ07NhR29GhQwdzppw4rx2IzJdNRE4UMhBRyEBEIQMRhQxEFDIQUchAOI0jmRDCs2FLVuzi8RCcwNXzWY5cFCbvGZCfPn1au3N4O4TK8JYIIOQNvQErjol6YwM2EZzADlYe46H5xElFQuJWESVmS5sawC8nfkn4zacgiMbigE2bNqm7d++aoz+Dq4obSiDF59MVhGMKhKh6suS5KFQIolJsLiuRrUIyC8dMom1uJIECECBwWa7M5P2CBQvU9u3bzZFsJk2apAMKLr4wFQA7pDOW3Bs7pFglZ/2NVESg1lJg6ceU1JJly5aJRYQ1a9bouXMp1D7scJn25Xw2KZlC0gRcbpZA85EWmgUCCOPKihUr9Ly7BCbAfCbBJJ+SJGQK6TNxnyCZIaS5IaQP1GSiODaYBfSdraRVSTVIFZK+kTUzvlAA20fp9I379+83KXcQ0rYSBMF5S/si1SBVSPoVyeqzLGyT/zdv3jR7ftDs/vzzT5MqjO1h2uB6iQ6pQjoML1Ox3SPv1/1gG6JIV9GlwfUSLVJL4TKGSsN2D98FqT9iWyAQYqGD5B6plnJxnpUQiGi73mUcWAjWL/IBZhZ5P7/D28klJAXAXfJF4jKyXFo6AV+I7t2768mqLPK6rlwvIbPtMWvn28QlX+3j4w4fPtyk3MAdlSwQoDb5Lr2hRQX5BQEKYGs6hcDfxlWUwOL6sWPHmpQcrpEICdjh45tju7RVWqubpB/6EQSk75PWZGol88gjRowwR+zga0+ePNmk7FCzWCTg8tsW2ODyi4Ci6A+Dcz6twPVLG5fRp1ITfaM/3B+3j09E0tw5FhJMmTJFTZ8+3Wu5HmVPfgkBmwpBf0rFwQ4eshSneCQDbAbB/E0ERTQy5+0m7ZizOHfunF6uzOQ9S2Xo44jC8HUBLyZWl+WFWGTyKwg4HgiGHZSfzechOQkZScfvlRz5hShkIKKQgYhCBiIKGYgoZCCikIGIQgYiChmIKGQgopCBiEIGQan/AEWRzSi+muIUAAAAAElFTkSuQmCC;" vertex="1" parent="1">
          <mxGeometry x="721" y="334" width="24.16" height="27.4" as="geometry" />
        </mxCell>
      </root>
    </mxGraphModel>
  </diagram>
</mxfile>
